<?xml version="1.0" standalone="no"?>
<!DOCTYPE svg PUBLIC "-//W3C//DTD SVG 20010904//EN"
 "http://www.w3.org/TR/2001/REC-SVG-20010904/DTD/svg10.dtd">
<svg version="1.0" xmlns="http://www.w3.org/2000/svg"
 width="1280.000000pt" height="746.000000pt" viewBox="0 0 1280.000000 746.000000"
 preserveAspectRatio="xMidYMid meet">
<metadata>
Created by potrace 1.15, written by Peter Selinger 2001-2017
</metadata>
<g transform="translate(0.000000,746.000000) scale(0.100000,-0.100000)"
fill="#000000" stroke="none">
<path d="M12547 7430 c-3 -14 -8 -34 -10 -45 -3 -12 -5 -6 -6 13 -1 45 -21 31
-22 -16 -1 -37 -1 -37 -11 -9 -13 36 -28 25 -29 -21 l-2 -37 -6 35 c-5 28 -8
31 -14 17 -4 -10 -7 -33 -8 -50 l-1 -32 -12 33 c-15 42 -26 31 -27 -27 -1 -44
-1 -45 -9 -13 -4 18 -10 36 -13 39 -9 9 -20 -45 -15 -72 3 -13 1 -22 -3 -19
-5 3 -9 21 -9 40 0 19 -4 34 -10 34 -10 0 -12 -15 -11 -85 l0 -40 -12 45 c-17
60 -31 37 -24 -38 l6 -57 -16 50 c-14 43 -17 47 -24 28 -4 -12 -3 -38 2 -58 6
-20 8 -42 6 -48 -2 -7 -8 5 -12 26 -9 44 -25 59 -25 23 0 -14 -4 -27 -9 -30
-13 -8 -21 -99 -11 -140 7 -31 5 -41 -13 -59 -12 -13 -32 -36 -44 -52 l-22
-30 5 35 6 35 -22 -32 c-30 -45 -35 -41 -10 8 31 61 21 84 -13 29 -31 -52 -36
-42 -7 15 11 22 20 45 20 52 0 24 -16 13 -34 -23 -24 -52 -30 -36 -6 17 11 24
20 50 20 57 0 23 -17 12 -30 -18 -7 -17 -16 -33 -21 -36 -5 -2 -2 11 6 30 8
20 15 42 15 51 0 26 -18 16 -29 -17 -6 -17 -13 -29 -16 -26 -3 3 0 19 6 36 6
17 9 41 7 54 -4 22 -5 22 -12 3 -22 -57 -24 -58 -20 -5 4 54 4 55 -11 25 l-15
-30 6 43 c7 48 -7 57 -23 15 -9 -25 -10 -23 -7 17 l4 45 -15 -30 c-14 -30 -14
-30 -10 20 l5 50 -15 -33 -16 -33 -34 41 c-38 45 -48 34 -15 -15 27 -41 26
-45 -17 -46 l-38 -1 50 -13 50 -13 -40 -2 c-32 -1 -36 -3 -20 -10 11 -5 32 -9
47 -9 15 -1 29 -5 32 -10 3 -5 -15 -6 -41 -3 -64 7 -48 -15 17 -24 59 -8 68
-21 10 -16 -58 6 -49 -13 13 -25 l52 -10 -49 -2 c-61 -1 -51 -16 19 -29 l50
-10 -50 -1 c-58 -2 -46 -16 23 -27 60 -9 52 -24 -10 -17 -64 8 -59 -9 9 -27
62 -17 81 -34 28 -25 -22 4 -49 9 -60 12 -42 11 10 -27 55 -40 24 -7 46 -19
48 -26 4 -11 -1 -12 -19 -7 -47 14 -99 23 -99 17 0 -10 49 -37 93 -50 20 -7
37 -17 37 -21 0 -5 -19 -3 -41 5 -23 8 -51 15 -62 15 -19 0 -19 -2 -7 -14 8
-8 38 -24 65 -36 28 -11 39 -18 25 -15 -87 19 -86 19 -72 2 8 -9 29 -22 48
-29 43 -15 45 -30 2 -17 -41 11 -47 5 -14 -16 l25 -17 -50 -69 c-28 -38 -53
-69 -55 -69 -3 0 7 20 21 45 15 24 25 54 23 66 -3 20 -6 18 -32 -19 -36 -52
-45 -48 -17 7 12 22 21 53 21 68 -1 28 -1 28 -23 -9 -28 -47 -41 -49 -21 -3 7
19 14 49 14 67 l-1 33 -25 -45 c-15 -27 -23 -35 -19 -20 15 62 16 88 7 94 -6
3 -13 -7 -17 -24 -4 -16 -11 -30 -16 -30 -6 0 -7 10 -4 23 4 12 9 30 11 39 3
10 1 25 -4 34 -8 14 -11 11 -20 -15 -15 -42 -24 -39 -16 4 3 19 3 43 -1 52 -6
15 -9 13 -20 -12 -13 -29 -13 -29 -8 18 6 52 -7 63 -25 20 -10 -25 -10 -23 -5
20 6 52 -7 62 -25 20 -11 -26 -11 -25 -7 15 7 56 -5 76 -20 33 l-11 -33 -28
40 c-15 22 -37 49 -48 59 -21 18 -21 18 -8 -7 7 -14 24 -42 37 -63 l24 -38
-28 7 c-15 3 -36 8 -47 11 -41 11 -3 -16 45 -32 54 -18 63 -31 11 -16 -52 15
-36 -6 18 -24 28 -9 50 -21 50 -25 0 -5 -13 -4 -30 1 -16 6 -37 9 -47 7 -15
-3 33 -26 96 -44 32 -10 0 -14 -38 -5 -59 13 -51 -4 12 -24 94 -31 82 -43 -18
-19 -39 10 16 -26 60 -38 44 -13 77 -35 35 -24 -14 4 -38 9 -54 13 -45 10 -24
-13 32 -33 47 -17 75 -34 69 -40 -2 -2 -27 6 -56 17 -30 11 -59 18 -65 16 -13
-4 17 -22 89 -53 27 -12 51 -27 53 -34 3 -9 -1 -9 -17 0 -12 6 -40 18 -62 25
-61 22 -44 -2 31 -44 76 -43 96 -74 24 -38 -27 13 -60 28 -74 32 l-25 7 22
-23 c12 -13 47 -38 77 -54 75 -40 72 -53 -4 -15 -33 16 -65 30 -71 30 -21 0
13 -31 69 -62 29 -17 51 -32 48 -35 -2 -3 -15 2 -28 10 -32 21 -68 30 -68 18
0 -5 16 -19 35 -31 37 -23 50 -49 15 -30 -22 12 -27 1 -8 -18 8 -8 4 -21 -17
-52 -35 -51 -43 -56 -37 -25 7 38 -10 30 -43 -20 -34 -51 -57 -62 -26 -12 37
61 51 92 51 117 l-1 25 -19 -23 c-11 -13 -28 -36 -39 -50 -30 -42 -34 -20 -5
31 16 30 24 58 22 79 l-3 33 -28 -48 c-36 -61 -47 -54 -18 12 21 51 28 101 13
101 -5 0 -17 -18 -27 -40 -10 -22 -22 -40 -28 -40 -5 0 -7 6 -4 14 22 55 28
95 20 111 -8 14 -13 11 -27 -25 -21 -54 -32 -45 -17 14 7 28 8 53 2 68 l-9 23
-11 -28 c-6 -16 -11 -33 -11 -38 0 -5 -4 -9 -9 -9 -5 0 -7 27 -4 60 6 67 -11
85 -23 24 -4 -21 -10 -32 -15 -27 -6 6 -5 23 2 41 6 18 8 45 4 60 l-7 27 -17
-38 c-20 -48 -32 -40 -18 12 6 21 7 47 3 57 -7 17 -10 15 -20 -13 -19 -54 -26
-49 -20 15 8 69 -7 85 -22 25 l-9 -38 -50 67 c-28 37 -54 67 -58 68 -9 0 21
-58 58 -114 l19 -29 -38 7 c-20 4 -45 10 -53 13 -11 4 -14 2 -9 -5 4 -6 34
-21 67 -33 67 -25 72 -34 10 -20 -61 13 -50 -5 19 -30 33 -12 63 -26 67 -32 3
-5 -3 -7 -13 -3 -11 3 -38 9 -62 15 -66 14 -36 -13 44 -39 35 -12 66 -26 69
-31 8 -12 0 -11 -62 5 -29 8 -53 11 -53 6 0 -8 95 -50 115 -50 7 0 18 -7 25
-15 15 -19 9 -19 -60 0 -66 18 -60 17 -60 6 0 -5 21 -17 48 -27 88 -32 115
-44 111 -49 -3 -2 -29 2 -59 10 -68 18 -65 18 -50 0 7 -8 39 -24 71 -36 32
-12 64 -28 70 -35 16 -19 0 -18 -52 5 -24 10 -57 21 -74 25 l-30 6 29 -24 c16
-13 58 -37 93 -51 35 -15 63 -33 63 -41 0 -9 -14 -7 -52 11 -29 13 -64 26 -78
30 l-25 6 25 -22 c14 -11 52 -35 85 -51 71 -36 61 -28 69 -55 6 -20 1 -18 -69
18 -141 72 -135 35 7 -46 43 -25 78 -50 78 -55 0 -15 -7 -13 -48 15 -20 13
-57 31 -82 40 l-44 16 29 -31 c17 -18 58 -48 93 -67 79 -44 75 -54 -6 -13 -32
16 -65 30 -72 30 -20 0 28 -48 72 -73 48 -26 50 -41 3 -21 -49 20 -52 18 -21
-15 l29 -30 -31 -38 c-17 -21 -74 -81 -127 -133 -73 -72 -93 -88 -85 -66 15
40 7 42 -24 6 -36 -44 -32 -29 8 27 18 27 36 61 40 78 l7 29 -22 -19 -21 -20
21 35 c11 19 21 46 21 58 0 21 -4 19 -36 -20 -20 -23 -41 -45 -47 -47 -11 -4
-5 7 35 63 26 36 52 105 44 114 -3 2 -22 -19 -43 -47 -47 -64 -55 -50 -13 24
17 30 30 65 28 77 -3 21 -7 18 -33 -21 -38 -56 -44 -38 -10 29 14 28 25 64 23
78 -3 26 -5 24 -32 -21 -36 -60 -46 -53 -17 12 22 51 27 91 13 91 -5 0 -17
-19 -28 -41 -24 -54 -30 -33 -9 31 11 33 13 55 7 66 -8 14 -12 11 -23 -19 -14
-40 -36 -52 -24 -14 3 12 8 45 11 72 l4 50 -17 -37 c-21 -51 -36 -48 -18 3 16
45 20 89 8 89 -5 0 -16 -17 -25 -38 -16 -34 -17 -35 -12 -7 3 17 7 48 10 70
l3 40 -17 -37 c-18 -41 -39 -52 -28 -15 4 12 9 42 12 67 l4 45 -19 -39 -19
-39 -41 79 c-46 90 -52 86 -16 -13 13 -37 22 -69 20 -71 -2 -2 -17 4 -35 13
-53 28 -58 10 -6 -23 28 -18 54 -32 58 -32 4 0 8 -5 8 -10 0 -6 -13 -4 -30 5
-72 37 -46 -7 29 -47 52 -28 35 -39 -21 -13 -90 42 -71 10 23 -40 70 -36 72
-60 3 -29 -30 13 -54 20 -54 15 0 -5 29 -28 65 -50 36 -23 65 -45 65 -51 0 -5
-25 3 -56 17 -30 14 -58 23 -61 20 -5 -6 55 -51 106 -79 17 -9 31 -22 31 -27
0 -5 -19 1 -42 14 -92 53 -83 18 10 -42 28 -18 52 -38 52 -43 0 -14 -2 -14
-66 25 -32 19 -62 35 -68 35 -15 0 43 -57 95 -93 26 -17 50 -40 52 -49 6 -20
-8 -24 -19 -7 -8 13 -94 69 -106 69 -17 0 20 -43 75 -86 36 -29 57 -53 57 -66
0 -18 -4 -17 -42 14 -123 97 -139 85 -30 -23 45 -45 82 -85 82 -90 0 -5 -25
11 -55 35 -116 95 -131 79 -25 -27 38 -39 69 -72 67 -73 -1 -2 -23 13 -47 32
-25 20 -53 40 -63 46 -35 18 8 -46 64 -96 60 -54 60 -74 0 -25 -60 47 -61 28
-3 -33 46 -48 50 -56 39 -75 -11 -20 -188 -173 -200 -173 -2 0 -2 12 1 28 4
25 2 24 -28 -15 -17 -24 -34 -43 -37 -43 -5 0 1 11 54 91 13 20 27 54 30 75
l6 39 -21 -25 c-18 -22 -18 -18 4 27 14 28 24 61 22 74 -3 20 -8 15 -42 -34
-46 -66 -70 -78 -31 -14 42 67 67 126 63 150 -3 18 -10 12 -43 -37 -46 -69
-60 -57 -19 17 15 29 31 71 34 95 8 50 0 45 -41 -25 -36 -60 -38 -33 -4 44 16
35 25 71 23 92 l-3 35 -32 -59 c-37 -68 -43 -56 -12 24 11 30 18 68 17 85 -4
30 -5 30 -30 -24 -31 -64 -35 -51 -11 41 9 37 13 74 9 85 -8 19 -15 6 -40 -70
-13 -40 -19 -3 -7 46 7 29 11 67 9 83 -4 30 -4 29 -17 -12 -8 -24 -18 -43 -23
-43 -11 0 -10 11 7 60 17 48 20 100 5 100 -5 0 -15 -18 -21 -40 -7 -22 -16
-40 -21 -40 -11 0 -10 4 8 60 9 26 14 59 11 72 -3 20 -6 18 -22 -19 -23 -55
-38 -46 -19 11 9 25 14 59 12 78 l-4 33 -12 -30 c-7 -16 -16 -38 -20 -48 -6
-14 -17 5 -49 80 -24 54 -43 91 -43 83 0 -13 25 -104 47 -173 5 -18 3 -18 -35
2 -85 43 -79 20 9 -40 68 -46 73 -61 9 -29 -54 28 -61 20 -14 -17 71 -55 89
-71 83 -77 -3 -4 -26 5 -50 19 -24 13 -48 25 -53 25 -15 0 26 -40 74 -73 25
-17 48 -35 52 -41 17 -25 5 -25 -35 -1 -91 52 -79 14 13 -45 26 -17 50 -39 53
-50 4 -15 -5 -13 -59 17 -102 56 -78 17 39 -64 64 -44 59 -60 -6 -23 -30 16
-57 30 -61 30 -16 0 25 -44 70 -76 51 -36 64 -51 64 -72 0 -8 -18 2 -42 21
-24 19 -58 42 -76 51 -32 17 -33 17 -23 -2 10 -19 73 -80 124 -119 15 -11 27
-31 27 -42 0 -21 -1 -21 -27 4 -40 38 -102 79 -109 72 -4 -3 28 -41 70 -84 54
-55 76 -85 76 -102 0 -24 -2 -23 -47 20 -50 48 -113 95 -113 84 0 -15 40 -66
102 -131 61 -64 80 -94 62 -94 -4 0 -35 27 -71 60 -35 33 -68 60 -74 60 -18 0
24 -65 83 -126 32 -33 58 -67 58 -74 0 -8 -15 4 -34 26 -32 36 -96 83 -96 69
0 -15 27 -55 77 -111 29 -34 53 -64 53 -68 0 -4 -21 11 -47 33 -26 22 -49 38
-51 36 -6 -5 18 -47 50 -85 15 -19 28 -38 28 -41 0 -4 -51 -39 -112 -79 -184
-118 -178 -116 -171 -72 l4 27 -18 -24 c-10 -14 -26 -34 -37 -45 -18 -20 -18
-20 0 9 41 66 74 139 74 163 l0 24 -20 -23 c-17 -20 -16 -15 6 33 14 32 24 68
22 80 -2 19 -10 12 -43 -40 -35 -54 -55 -75 -55 -56 0 3 18 36 40 73 26 43 42
84 46 116 l5 50 -45 -70 c-54 -83 -64 -61 -16 35 18 36 30 75 30 97 l-1 38
-37 -65 c-45 -80 -54 -58 -12 33 19 42 30 82 30 109 l-1 43 -32 -63 c-18 -35
-35 -60 -38 -58 -3 3 5 36 17 73 13 38 24 78 24 90 0 40 -16 32 -35 -18 -11
-27 -23 -49 -27 -49 -11 0 -10 8 7 64 17 57 21 150 5 126 -6 -8 -15 -32 -20
-52 -6 -21 -15 -38 -20 -38 -13 0 -13 8 5 66 17 55 19 100 6 108 -5 3 -14 -14
-21 -39 -7 -25 -16 -42 -20 -40 -5 3 -2 26 6 52 15 51 19 127 5 119 -4 -3 -14
-26 -21 -51 -8 -28 -16 -42 -20 -34 -5 6 -1 31 7 55 8 23 13 60 11 81 l-3 38
-19 -54 c-13 -39 -21 -50 -27 -39 -4 8 -2 31 6 54 8 21 14 57 14 79 l0 40 -14
-30 c-7 -16 -17 -41 -22 -54 -8 -20 -14 -10 -47 78 -21 56 -42 104 -47 107 -5
3 -7 -1 -5 -8 2 -7 10 -35 16 -63 7 -27 19 -70 27 -94 7 -24 12 -45 10 -47 -2
-3 -25 7 -50 22 -65 36 -59 13 11 -38 87 -65 96 -86 19 -42 -64 35 -59 14 8
-37 73 -55 105 -109 35 -59 -15 11 -39 24 -54 30 -47 18 -29 -8 44 -61 39 -28
70 -58 70 -65 0 -18 -9 -18 -30 1 -8 8 -34 21 -55 30 l-40 16 41 -38 c23 -21
57 -52 78 -69 43 -37 50 -66 9 -38 -33 21 -99 54 -109 54 -15 0 43 -53 99 -91
76 -53 77 -80 0 -33 -31 18 -59 31 -62 28 -6 -6 66 -77 113 -110 18 -13 27
-27 25 -39 -4 -17 -8 -16 -39 11 -50 43 -110 78 -110 64 0 -7 38 -49 85 -94
47 -46 85 -91 85 -101 0 -16 -7 -13 -37 16 -48 45 -93 79 -105 79 -15 0 47
-82 101 -133 40 -38 51 -55 51 -80 l0 -31 -52 55 c-55 57 -118 106 -118 92 0
-17 46 -81 106 -149 86 -96 82 -120 -5 -33 -38 38 -74 69 -80 69 -20 0 25 -74
88 -143 81 -89 78 -106 -4 -27 -36 34 -68 60 -71 57 -9 -9 23 -61 75 -124 62
-74 67 -103 8 -45 -67 66 -79 53 -21 -23 29 -39 33 -50 22 -60 -13 -12 -346
-205 -353 -205 -2 0 5 20 16 45 11 25 19 58 17 73 -3 26 -4 25 -31 -20 -45
-77 -40 -55 8 37 29 54 45 98 45 121 0 19 -4 33 -9 30 -5 -3 -2 13 6 36 8 23
13 53 11 67 -3 23 -8 19 -48 -41 -24 -37 -45 -66 -48 -64 -2 3 17 47 43 98 36
74 46 103 43 133 l-3 40 -45 -74 c-24 -41 -46 -68 -48 -62 -2 7 12 48 32 91
29 60 37 88 34 122 l-3 43 -36 -69 c-20 -38 -38 -65 -41 -60 -3 5 8 43 25 84
31 77 47 170 30 170 -6 0 -24 -30 -41 -67 -36 -78 -41 -67 -12 25 21 67 27
142 11 142 -5 0 -17 -24 -26 -52 -17 -52 -35 -83 -35 -62 0 6 9 46 20 89 19
74 19 152 0 140 -4 -2 -13 -26 -20 -52 -7 -27 -17 -52 -23 -58 -10 -11 -9 -5
13 102 10 44 11 68 3 85 -9 21 -11 18 -28 -32 -23 -70 -30 -52 -10 25 17 67
19 104 6 124 -7 11 -14 -1 -26 -43 -24 -81 -31 -61 -11 28 13 54 15 79 8 93
-9 15 -12 16 -16 3 -3 -8 -13 -33 -21 -55 l-15 -40 5 40 c21 160 14 214 -15
110 -12 -42 -30 -62 -30 -32 0 15 -76 217 -85 226 -9 8 3 -57 27 -149 34 -128
34 -128 12 -109 -10 9 -38 26 -62 38 l-43 22 17 -26 c9 -14 43 -46 76 -71 32
-25 58 -50 58 -56 0 -6 -7 -5 -17 4 -25 22 -84 51 -90 44 -6 -6 47 -59 105
-108 40 -33 44 -58 5 -32 -44 29 -96 54 -102 49 -7 -8 37 -52 102 -102 76 -59
76 -83 0 -37 -31 19 -61 34 -65 34 -20 0 17 -44 76 -90 57 -45 83 -76 73 -87
-2 -2 -15 5 -28 15 -24 20 -103 62 -114 62 -17 0 45 -68 99 -107 34 -25 64
-53 68 -64 10 -25 2 -24 -34 6 -17 14 -48 35 -70 46 -38 19 -39 19 -29 1 13
-24 55 -68 108 -112 22 -19 44 -46 48 -60 7 -22 3 -21 -41 16 -65 54 -114 87
-120 82 -10 -10 61 -101 117 -149 37 -32 59 -59 59 -72 0 -19 -4 -17 -37 14
-49 47 -112 93 -118 87 -8 -8 50 -91 107 -153 33 -36 57 -73 61 -92 4 -18 3
-33 -1 -32 -4 0 -25 23 -48 52 -23 29 -62 67 -88 86 l-47 33 16 -38 c18 -43
47 -84 122 -170 76 -88 69 -115 -8 -31 -33 37 -74 76 -90 88 l-29 20 10 -25
c20 -53 40 -84 104 -161 36 -43 64 -81 62 -83 -3 -2 -36 29 -75 69 -39 39 -74
70 -77 67 -15 -15 79 -165 130 -207 9 -7 16 -21 16 -29 0 -10 -20 3 -53 36
-29 29 -56 52 -60 52 -15 0 25 -76 64 -122 21 -26 39 -49 39 -51 0 -4 -280
-160 -507 -282 -32 -17 -43 -20 -45 -10 -2 10 -16 5 -47 -16 -24 -17 -45 -28
-47 -26 -2 2 21 21 52 42 59 41 124 110 124 132 0 9 -5 11 -12 7 -7 -5 6 14
30 40 23 27 42 55 42 63 0 16 -1 15 -82 -39 -64 -43 -80 -37 -20 7 82 61 165
155 149 171 -2 2 -36 -19 -75 -46 -65 -46 -85 -53 -64 -25 4 6 33 33 65 60 52
43 106 119 94 131 -2 3 -26 -13 -53 -34 -98 -77 -100 -66 -5 32 63 64 99 121
87 134 -3 2 -30 -17 -61 -43 -67 -57 -71 -50 -9 17 42 45 89 127 78 137 -2 3
-27 -17 -54 -44 -61 -60 -65 -48 -9 20 42 51 85 132 75 142 -3 3 -26 -16 -50
-43 -56 -61 -60 -44 -6 22 37 45 68 109 57 120 -2 2 -21 -14 -41 -36 -46 -51
-47 -32 -1 24 36 44 70 114 61 124 -4 3 -22 -14 -42 -37 -47 -55 -58 -45 -12
11 42 52 58 81 58 105 -1 13 -11 7 -40 -26 -52 -56 -52 -33 -1 33 22 28 42 65
46 81 l7 30 -42 -43 -41 -42 6 132 c6 154 -5 145 -33 -27 l-18 -109 -22 35
c-12 19 -31 44 -42 54 -21 19 -21 19 -15 -10 4 -17 23 -59 42 -94 18 -35 31
-66 27 -70 -4 -3 -9 0 -12 8 -3 8 -20 30 -38 50 l-33 36 10 -40 c6 -22 22 -59
36 -82 13 -23 23 -52 21 -64 -2 -18 -8 -14 -35 28 -18 28 -40 56 -49 64 -15
12 -16 11 -10 -11 4 -14 25 -61 47 -105 21 -44 39 -86 39 -93 0 -22 -15 -12
-34 22 -10 19 -30 45 -43 58 l-25 23 7 -35 c4 -19 22 -62 41 -94 22 -37 34
-69 32 -85 l-3 -26 -17 31 c-25 45 -88 118 -88 101 0 -25 26 -90 59 -145 30
-51 39 -82 23 -82 -4 0 -18 20 -31 44 -13 25 -32 53 -44 63 -20 18 -20 18 -13
-21 4 -22 22 -69 40 -105 21 -43 31 -74 27 -89 -5 -19 -11 -12 -38 45 -18 37
-42 79 -53 93 l-21 25 6 -49 c4 -26 22 -85 41 -130 23 -54 33 -89 29 -106 -6
-21 -10 -15 -36 45 -16 39 -39 81 -50 95 l-21 25 7 -53 c3 -29 19 -91 36 -136
28 -77 29 -86 16 -117 l-13 -34 -13 50 c-13 55 -70 185 -80 185 -14 0 7 -139
34 -228 19 -61 25 -96 18 -103 -6 -6 -15 11 -27 52 -17 62 -61 159 -73 159
-12 0 7 -138 31 -219 14 -47 22 -89 19 -95 -3 -5 -12 14 -19 42 -14 53 -60
152 -71 152 -10 0 6 -123 27 -199 12 -41 19 -79 17 -85 -3 -6 -8 -2 -11 9 -4
11 -18 43 -31 70 l-24 50 0 -55 c-1 -30 6 -77 14 -104 8 -27 14 -50 13 -52 -2
-1 -40 -18 -84 -38 -79 -34 -277 -96 -358 -112 l-39 -7 28 37 c15 20 25 39 22
42 -2 3 -27 -9 -55 -25 -81 -51 -72 -35 16 25 45 31 95 75 112 97 30 41 26 61
-8 36 -9 -7 2 5 24 27 53 50 90 104 72 104 -7 0 -48 -22 -90 -50 -82 -52 -109
-52 -35 0 103 74 144 110 165 149 13 22 19 41 15 41 -5 0 -43 -22 -84 -49 -42
-28 -76 -45 -78 -38 -2 6 11 22 30 36 67 51 131 116 150 153 11 21 17 38 14
38 -3 0 -36 -22 -73 -49 -37 -27 -69 -45 -70 -40 -2 5 28 39 68 76 40 37 82
87 96 114 13 27 22 49 20 49 -2 0 -35 -25 -72 -55 -37 -31 -69 -53 -72 -50 -3
3 20 32 52 64 51 54 102 138 90 150 -2 3 -29 -19 -59 -49 -30 -30 -57 -51 -60
-48 -3 3 20 36 51 74 95 115 115 189 29 104 -67 -66 -72 -51 -9 26 46 58 64
92 64 122 -1 11 -18 -3 -50 -38 -62 -70 -66 -50 -4 22 81 93 106 186 27 98
-26 -29 -49 -47 -51 -41 -2 6 15 32 38 59 41 45 70 98 70 124 0 7 -23 -12 -50
-42 -39 -44 -49 -51 -50 -34 0 11 14 33 31 50 35 33 63 77 74 114 6 21 -1 17
-45 -25 l-52 -50 6 100 c4 55 9 119 12 143 3 23 1 42 -4 42 -9 0 -52 -207 -52
-252 0 -35 -11 -35 -33 0 -19 31 -64 82 -71 82 -10 0 32 -102 59 -142 14 -22
25 -47 23 -56 -2 -12 -9 -7 -25 19 -12 19 -32 44 -44 55 l-22 19 6 -34 c4 -18
23 -59 42 -91 19 -32 35 -64 35 -72 0 -31 -14 -26 -40 15 -15 23 -40 53 -55
67 l-27 25 7 -25 c14 -46 32 -85 64 -134 29 -46 41 -96 23 -96 -4 0 -16 15
-26 34 -10 19 -34 49 -53 68 -34 32 -35 32 -28 8 7 -28 39 -93 75 -156 15 -26
21 -47 16 -59 -6 -16 -12 -11 -40 31 -19 27 -46 60 -61 74 l-27 25 7 -25 c3
-14 9 -34 12 -44 5 -17 38 -77 76 -138 9 -14 12 -31 7 -43 -6 -18 -9 -15 -28
20 -11 22 -35 56 -52 75 l-31 35 6 -40 c4 -22 24 -73 46 -114 33 -60 38 -79
31 -100 l-9 -26 -17 40 c-21 49 -88 155 -99 155 -4 0 -5 -11 -2 -25 3 -14 8
-37 11 -52 3 -16 23 -67 44 -114 24 -53 37 -95 33 -108 -8 -33 -20 -25 -37 25
-15 45 -73 144 -83 144 -14 0 12 -112 43 -193 31 -81 33 -93 22 -123 -7 -19
-15 -34 -18 -34 -3 0 -12 23 -19 51 -7 28 -30 83 -50 123 l-36 71 -3 -56 c-2
-43 6 -83 33 -168 25 -77 33 -116 27 -127 -11 -20 -15 -14 -37 61 -16 57 -64
155 -75 155 -15 0 4 -136 30 -222 32 -101 35 -118 23 -118 -5 0 -16 28 -26 62
-17 58 -62 148 -74 148 -13 0 7 -141 31 -214 14 -45 22 -86 17 -93 -5 -10 -12
-1 -20 29 -7 24 -24 61 -37 83 l-24 40 0 -50 c0 -27 7 -75 15 -105 8 -30 15
-58 15 -61 0 -4 -19 -10 -42 -13 -79 -13 -433 -66 -442 -66 -6 0 5 16 24 35
18 19 31 37 28 41 -3 3 -29 -7 -58 -21 -29 -14 -54 -24 -57 -21 -3 2 19 17 48
32 81 41 126 73 155 112 l27 35 -24 -6 -24 -6 25 17 c36 24 99 95 94 104 -3 4
-42 -11 -87 -35 -104 -53 -105 -53 -89 -35 7 9 48 36 91 61 69 40 151 116 151
139 0 4 -37 -11 -82 -34 -46 -24 -86 -44 -91 -46 -4 -2 -4 4 -1 13 4 9 35 34
70 56 62 39 121 97 144 139 11 21 9 20 -37 -6 -26 -15 -59 -35 -73 -44 -50
-33 -53 -34 -41 -12 6 11 39 40 73 65 70 50 84 64 119 122 l24 40 -30 -19
c-17 -11 -52 -34 -79 -52 -28 -19 -52 -31 -55 -28 -3 2 25 32 62 65 57 52 121
139 102 139 -4 0 -31 -20 -62 -45 -31 -25 -58 -43 -61 -40 -3 3 22 34 55 68
55 56 115 148 96 147 -5 -1 -33 -23 -63 -50 -73 -65 -78 -44 -7 29 31 31 64
74 73 96 l16 39 -56 -48 c-31 -26 -56 -44 -56 -41 0 4 26 36 59 70 50 54 92
125 74 125 -3 0 -28 -20 -55 -45 -70 -63 -74 -47 -6 23 93 95 109 150 23 77
-70 -60 -71 -41 -1 33 87 93 105 148 23 73 -24 -23 -46 -41 -49 -41 -2 0 6 62
18 138 19 119 22 157 11 141 -4 -6 -54 -173 -70 -234 l-13 -50 -31 57 c-18 31
-38 60 -44 64 -20 12 -1 -63 32 -128 29 -58 41 -114 16 -75 -7 11 -27 40 -45
65 l-34 47 7 -40 c3 -22 19 -67 34 -100 17 -37 25 -68 21 -79 -5 -16 -12 -9
-37 35 -17 30 -39 61 -48 69 -17 14 -18 13 -11 -24 4 -22 23 -70 42 -107 26
-52 32 -73 25 -91 -8 -22 -9 -21 -29 17 -11 22 -33 56 -47 75 l-27 35 6 -43
c4 -24 21 -73 39 -110 30 -61 38 -112 17 -112 -4 0 -10 10 -14 23 -6 24 -85
141 -91 135 -9 -8 19 -97 51 -166 21 -47 32 -83 28 -95 -5 -16 -12 -8 -35 39
-16 33 -38 70 -50 84 l-20 25 6 -48 c4 -27 20 -79 36 -118 20 -47 27 -77 23
-95 -8 -31 -17 -22 -34 31 -7 22 -26 65 -44 95 l-31 55 -3 -42 c-2 -29 8 -76
33 -148 28 -83 33 -109 25 -125 -6 -11 -12 -20 -15 -20 -2 0 -11 26 -20 57
-18 60 -61 153 -72 153 -12 0 6 -128 30 -210 25 -83 25 -85 7 -119 l-18 -36
-11 40 c-6 22 -11 46 -11 53 0 7 -14 50 -32 95 l-32 82 -7 -50 c-6 -50 8 -153
34 -253 12 -42 12 -55 1 -70 -11 -16 -13 -15 -18 8 -19 93 -30 131 -50 179
-20 47 -24 51 -29 30 -12 -42 -7 -104 13 -204 22 -107 24 -125 12 -125 -4 0
-13 28 -19 63 -12 63 -51 163 -59 154 -11 -11 -4 -148 11 -221 12 -56 13 -82
6 -89 -8 -8 -11 -6 -11 6 0 27 -42 147 -51 147 -11 0 -11 -114 0 -162 9 -37 8
-38 -23 -42 -45 -7 -737 -48 -741 -44 -2 2 28 16 66 32 65 27 169 105 141 106
-7 0 -40 -11 -74 -25 -34 -14 -63 -23 -66 -20 -3 2 6 9 20 14 79 30 167 76
205 107 46 38 56 60 23 49 -33 -10 -23 3 18 24 45 23 113 91 91 91 -8 0 -54
-16 -102 -35 -48 -19 -89 -35 -92 -35 -21 0 20 26 108 69 93 45 191 121 175
136 -3 3 -48 -13 -101 -35 -53 -22 -100 -40 -103 -40 -18 0 27 35 92 71 84 46
124 77 154 119 l21 29 -57 -25 c-31 -13 -74 -34 -96 -45 -28 -14 -39 -16 -36
-7 5 13 24 27 123 88 50 30 132 116 122 127 -2 2 -41 -17 -87 -42 -120 -67
-120 -51 0 32 49 35 120 117 109 127 -2 2 -35 -16 -73 -41 -68 -44 -104 -51
-55 -10 14 12 47 39 73 60 46 38 104 113 94 122 -2 3 -33 -16 -69 -40 -62 -45
-99 -46 -42 -2 61 47 105 92 119 120 9 16 14 31 12 33 -2 2 -30 -15 -61 -37
-31 -22 -57 -36 -57 -31 0 5 28 33 61 62 56 49 99 102 99 123 0 5 -29 -12 -65
-38 -63 -45 -91 -47 -38 -2 76 63 106 93 119 119 8 15 11 28 8 28 -4 0 -32
-18 -61 -41 -87 -65 -86 -31 0 37 50 39 102 102 92 112 -2 3 -30 -14 -60 -37
-31 -24 -58 -41 -60 -39 -2 1 12 66 30 143 30 121 35 160 21 144 -6 -8 -86
-218 -86 -228 0 -5 -5 -22 -10 -37 l-11 -27 -24 49 c-14 27 -34 60 -46 74
l-20 25 7 -45 c3 -25 19 -73 35 -108 37 -82 27 -114 -13 -40 -16 29 -36 60
-44 68 -14 13 -15 11 -8 -25 3 -22 18 -68 31 -103 17 -40 23 -71 19 -88 -6
-24 -9 -22 -36 33 -17 32 -39 69 -51 83 l-20 25 6 -45 c4 -25 21 -78 37 -118
21 -51 28 -80 23 -99 -6 -26 -8 -24 -41 37 -19 36 -41 71 -50 80 -15 14 -16
11 -10 -29 4 -24 20 -75 36 -113 19 -45 28 -78 24 -94 -3 -13 -9 -24 -13 -24
-3 0 -16 24 -29 54 -13 29 -36 69 -52 87 l-29 34 5 -40 c3 -22 21 -79 40 -127
24 -58 33 -95 29 -109 -6 -19 -12 -12 -40 47 -18 38 -40 78 -49 89 -17 19 -17
18 -13 -35 3 -30 17 -85 32 -123 24 -60 26 -71 15 -98 l-13 -31 -27 79 c-14
43 -36 94 -48 113 l-22 35 0 -61 c0 -35 10 -95 25 -145 29 -98 30 -109 11
-134 -12 -16 -15 -11 -30 51 -10 38 -28 89 -40 114 l-24 44 -6 -40 c-7 -38 11
-156 35 -230 8 -26 6 -38 -12 -68 -12 -20 -23 -35 -25 -33 -2 2 -10 39 -18 83
-7 43 -25 106 -39 139 l-25 60 -7 -49 c-9 -57 -1 -163 19 -256 10 -48 11 -69
2 -82 -6 -10 -13 -18 -16 -18 -3 0 -11 35 -17 78 -6 42 -21 104 -34 137 -20
54 -23 58 -30 35 -12 -43 -10 -151 6 -245 8 -54 11 -93 5 -99 -5 -5 -11 1 -13
15 -3 13 -10 50 -15 81 -6 31 -19 76 -30 100 l-19 43 -8 -60 c-5 -36 -3 -101
4 -164 8 -68 9 -107 2 -114 -6 -6 -12 4 -16 29 -12 69 -37 136 -47 126 -12
-12 -14 -100 -5 -172 6 -45 4 -59 -11 -76 -17 -20 -36 -23 -250 -38 -299 -21
-285 -21 -242 5 19 12 45 30 58 42 27 25 30 52 5 42 -47 -19 -43 -14 17 19 78
44 144 105 130 121 -6 7 0 17 19 28 39 23 97 90 82 95 -10 3 -62 -15 -174 -63
-75 -32 -25 5 71 52 95 46 192 122 192 149 0 8 -1 14 -3 14 -8 0 -135 -53
-169 -71 -40 -20 -51 -13 -20 13 9 8 50 33 91 54 66 35 171 131 171 156 0 5
-45 -15 -101 -43 -56 -27 -99 -45 -97 -38 2 7 40 34 84 61 81 50 134 100 168
158 l19 33 -59 -33 c-32 -19 -76 -44 -97 -58 -68 -42 -51 -16 30 44 69 52 143
138 143 166 0 5 -36 -15 -80 -46 -99 -68 -106 -49 -10 28 60 49 131 139 118
151 -2 2 -34 -18 -71 -46 -37 -27 -69 -49 -72 -49 -17 0 19 45 68 84 49 40
106 120 95 132 -2 2 -30 -17 -62 -42 -32 -25 -60 -43 -64 -40 -3 4 27 37 67
74 65 59 125 142 104 142 -5 0 -34 -21 -66 -46 -32 -25 -61 -44 -63 -41 -10 9
10 34 59 73 49 38 97 96 97 117 0 10 -8 5 -85 -51 -68 -50 -54 -17 24 57 64
61 99 107 89 117 -3 2 -29 -14 -59 -36 -29 -23 -55 -37 -56 -33 -2 5 12 75 31
156 18 81 30 150 25 153 -5 3 -13 -5 -18 -18 -5 -13 -19 -48 -31 -78 -13 -30
-35 -93 -50 -140 -27 -84 -27 -85 -39 -55 -15 37 -64 115 -72 115 -12 0 10
-97 35 -154 27 -61 33 -96 16 -96 -5 0 -10 5 -10 12 0 15 -62 118 -71 118 -12
0 10 -96 35 -152 21 -46 24 -63 16 -84 -10 -25 -11 -24 -45 44 -20 38 -43 76
-52 83 -15 13 -16 10 -9 -31 3 -25 20 -80 37 -122 22 -55 29 -86 24 -105 -6
-26 -8 -25 -38 32 -18 33 -40 71 -50 85 l-17 24 0 -38 c0 -21 16 -78 35 -126
30 -74 34 -91 25 -115 -11 -28 -11 -28 -45 41 -18 38 -43 83 -55 99 l-22 30 6
-53 c3 -29 21 -91 40 -138 25 -61 33 -92 27 -107 -8 -20 -10 -19 -25 17 -9 21
-16 40 -16 42 0 2 -16 29 -35 61 l-35 58 0 -53 c0 -34 11 -87 31 -143 19 -57
29 -99 25 -114 -7 -29 -26 -34 -26 -7 -1 29 -45 146 -74 193 l-27 44 4 -85 c2
-52 15 -122 32 -179 23 -81 25 -97 14 -118 -12 -23 -14 -21 -34 54 -12 43 -32
101 -45 128 l-23 50 -8 -55 c-6 -43 -2 -82 17 -178 24 -118 24 -123 7 -152 -9
-17 -20 -30 -23 -30 -3 0 -11 37 -17 83 -7 45 -24 113 -39 151 -25 64 -28 67
-37 45 -15 -40 -12 -157 7 -271 18 -103 16 -164 -3 -128 -5 8 -11 40 -15 70
-9 74 -56 214 -67 203 -19 -19 -21 -166 -5 -265 19 -114 19 -128 6 -128 -5 0
-10 15 -10 33 0 42 -24 141 -46 192 l-17 40 -10 -40 c-9 -39 -4 -208 9 -292 5
-29 3 -43 -5 -43 -6 0 -11 10 -11 23 0 31 -41 167 -51 167 -18 0 -23 -176 -6
-265 2 -10 -37 -15 -216 -30 l-88 -7 24 39 c13 21 29 48 36 61 l12 23 -33 -17
c-18 -9 -57 -34 -85 -55 -29 -22 -53 -35 -53 -30 0 6 24 32 53 58 84 77 126
124 152 171 14 25 24 46 22 48 -7 7 -124 -70 -170 -112 -28 -25 -53 -42 -56
-38 -3 3 10 19 29 36 97 84 188 181 214 228 l28 52 -48 -28 c-68 -38 -134 -87
-168 -123 -34 -35 -49 -39 -44 -13 2 10 46 54 98 98 87 74 190 197 176 211
-10 10 -149 -79 -203 -130 l-53 -50 1 29 c1 47 10 59 98 125 71 54 161 150
161 173 0 11 -123 -55 -179 -97 -50 -37 -54 -38 -48 -16 4 13 7 27 7 30 0 3
37 30 82 59 79 52 158 123 178 161 10 17 8 17 -27 2 -60 -25 -115 -54 -160
-85 -37 -25 -43 -27 -43 -11 0 27 9 35 90 82 68 40 157 117 147 127 -6 6 -117
-34 -155 -56 -19 -12 -36 -19 -38 -17 -13 13 15 37 79 69 80 39 188 119 169
126 -16 5 -108 -23 -156 -48 -44 -22 -51 -21 -42 7 3 10 39 35 81 56 66 32
162 104 152 113 -6 6 -109 -27 -149 -47 -21 -11 -38 -17 -38 -14 0 23 31 50
91 80 62 32 155 102 146 111 -6 6 -109 -27 -149 -47 -21 -11 -38 -16 -38 -11
0 18 28 40 90 75 36 19 79 50 95 67 l30 32 -30 -8 c-31 -7 -85 -25 -119 -39
-14 -6 -17 -5 -12 4 4 6 38 27 74 46 72 37 141 90 131 100 -8 7 -128 -32 -146
-47 -20 -16 -16 3 13 68 22 50 84 227 84 240 0 2 -4 4 -10 4 -5 0 -42 -64 -82
-142 l-71 -143 -22 85 -22 85 -11 -40 c-15 -50 -15 -75 2 -152 7 -34 10 -67 6
-74 -9 -13 -10 -8 -31 81 -17 75 -26 81 -34 25 -7 -44 -4 -93 10 -190 10 -61
-10 -21 -25 53 -7 34 -16 65 -21 67 -4 3 -12 -19 -19 -48 -8 -42 -7 -69 5
-132 18 -93 18 -103 6 -90 -4 6 -14 38 -21 73 -7 34 -16 65 -21 67 -4 3 -12
-18 -18 -48 -9 -41 -8 -69 3 -127 20 -104 3 -125 -19 -24 -24 112 -31 118 -45
48 -11 -50 -10 -74 5 -157 9 -54 14 -101 12 -104 -3 -3 -18 36 -33 87 -16 53
-30 86 -34 78 -18 -33 -19 -101 -4 -170 9 -40 18 -86 20 -103 5 -38 -3 -22
-48 95 l-32 85 -9 -63 c-8 -54 -5 -74 19 -155 44 -149 42 -177 -6 -67 -23 52
-46 99 -51 105 -5 5 -9 -20 -9 -63 0 -59 7 -91 36 -168 49 -131 39 -149 -18
-31 -26 53 -52 97 -59 97 -8 0 -10 -21 -7 -67 3 -51 13 -89 42 -153 57 -127
54 -148 -4 -37 -29 53 -57 97 -62 97 -12 0 -6 -122 8 -154 5 -14 4 -17 -4 -12
-26 16 -14 -101 18 -177 16 -40 23 -63 15 -53 -8 11 -15 23 -15 28 0 4 -4 8
-10 8 -19 0 -10 -80 15 -142 14 -34 25 -65 25 -68 0 -4 -24 -10 -54 -14 -48
-5 -194 -38 -471 -106 -47 -12 -89 -20 -91 -17 -3 3 4 20 15 38 12 19 21 37
21 42 0 11 -59 -21 -117 -64 -98 -74 -80 -40 31 57 70 61 164 179 152 192 -9
8 -106 -51 -170 -105 -36 -30 -66 -49 -66 -43 0 6 14 23 32 38 107 90 167 149
205 204 24 34 43 65 43 69 0 15 -134 -68 -201 -124 -56 -47 -69 -54 -69 -38 0
12 38 51 109 110 95 79 138 128 186 210 15 26 -135 -62 -205 -120 -61 -52 -70
-56 -69 -37 2 49 17 68 94 125 74 55 185 166 185 185 0 12 -137 -58 -191 -98
-26 -19 -49 -34 -51 -34 -3 0 -3 11 -1 24 4 18 32 42 99 86 86 57 193 155 181
166 -8 9 -130 -45 -184 -81 -29 -19 -54 -35 -56 -35 -3 0 -2 11 1 25 3 19 23
35 81 67 68 37 177 125 168 135 -7 6 -132 -36 -165 -57 -39 -24 -42 -24 -42
-5 0 9 37 34 91 60 78 40 187 121 176 132 -6 5 -138 -37 -179 -58 -27 -14 -38
-16 -38 -7 0 25 17 39 81 69 64 30 169 104 169 119 0 9 -122 -26 -163 -47 -32
-16 -40 -14 -31 11 3 9 38 31 78 50 65 30 183 113 174 121 -7 7 -121 -26 -160
-46 -47 -24 -51 -24 -38 0 5 11 41 36 78 56 76 40 156 104 131 105 -15 0 -99
-26 -141 -45 -10 -4 -18 -3 -18 2 0 5 37 28 83 51 45 22 96 55 112 73 l30 32
-40 -8 c-22 -3 -60 -15 -84 -26 -24 -11 -46 -18 -48 -16 -2 2 9 30 23 63 42
94 92 244 83 250 -8 4 -36 -43 -122 -204 l-44 -84 -18 74 c-22 92 -32 103 -40
44 -7 -45 -4 -90 11 -183 12 -75 -10 -46 -30 39 -19 81 -20 82 -32 53 -17 -39
-17 -96 0 -170 8 -33 11 -66 7 -73 -4 -8 -15 22 -26 72 -10 47 -22 86 -26 86
-4 0 -12 -22 -19 -49 -9 -40 -9 -65 4 -133 19 -98 19 -98 8 -98 -5 0 -14 28
-21 63 -7 35 -16 69 -21 77 -14 22 -33 -68 -27 -125 17 -144 18 -159 10 -145
-5 8 -18 50 -28 93 -10 42 -22 77 -26 77 -23 0 -26 -144 -5 -235 25 -102 2
-94 -29 11 -25 83 -30 93 -38 73 -5 -13 -9 -51 -10 -84 0 -51 6 -85 39 -197 3
-10 1 -18 -4 -18 -5 0 -23 39 -41 87 -44 123 -48 127 -56 58 -8 -64 4 -134 40
-231 39 -104 12 -91 -36 16 -43 99 -44 100 -52 68 -14 -51 -1 -119 38 -219 55
-136 38 -141 -31 -9 l-59 115 -3 -65 c-3 -70 15 -134 69 -242 55 -110 28 -92
-34 22 l-62 115 -3 -52 c-2 -29 2 -69 7 -90 8 -26 7 -39 -1 -44 -6 -4 -9 -29
-6 -67 3 -45 16 -84 51 -157 26 -54 46 -99 45 -101 -2 -1 -19 26 -38 62 -19
35 -38 64 -42 64 -17 0 -6 -88 18 -145 14 -33 28 -67 31 -76 4 -13 -36 -26
-244 -78 -136 -34 -256 -64 -267 -67 -15 -5 -13 1 11 37 17 24 35 54 42 67
l12 23 -48 -25 c-27 -13 -73 -43 -101 -65 -91 -73 -58 -18 43 69 83 73 152
155 171 204 9 24 -116 -49 -192 -112 -35 -29 -64 -47 -64 -40 0 7 48 53 106
102 73 62 120 110 152 158 25 37 43 70 41 72 -9 8 -152 -82 -216 -136 -62 -52
-68 -55 -72 -35 -2 15 7 29 30 47 118 89 213 177 248 229 23 33 41 63 41 66 0
16 -165 -82 -229 -136 -71 -60 -77 -60 -65 0 5 26 27 47 113 111 87 65 181
161 181 184 0 12 -139 -59 -197 -100 -61 -43 -74 -43 -57 0 4 9 56 49 118 90
67 45 128 94 155 126 38 46 41 51 20 45 -48 -15 -169 -74 -213 -104 -25 -18
-46 -28 -46 -22 0 36 25 60 113 110 94 53 187 131 156 131 -25 0 -128 -38
-175 -64 -27 -15 -44 -20 -44 -13 0 23 16 34 115 86 84 43 205 131 180 131
-25 0 -137 -36 -187 -59 -32 -15 -58 -27 -58 -25 0 1 4 14 10 28 7 19 33 38
97 68 47 24 107 62 132 85 l46 42 -59 -15 c-32 -8 -82 -26 -112 -39 -30 -13
-54 -21 -53 -17 3 28 25 47 104 85 78 39 183 113 173 123 -8 7 -124 -29 -171
-53 -41 -20 -49 -22 -43 -8 3 9 6 20 6 25 0 4 37 26 83 49 79 39 179 121 132
108 -11 -3 -33 -9 -50 -13 -16 -4 -50 -15 -73 -26 -77 -32 -41 4 48 50 75 38
156 99 146 109 -5 5 -89 -19 -140 -41 -22 -9 -40 -15 -42 -13 -2 1 8 27 22 57
41 87 105 271 98 282 -6 10 -33 -34 -129 -216 l-53 -99 -12 58 c-7 32 -18 74
-25 94 l-12 36 -13 -56 c-11 -47 -10 -68 4 -138 11 -54 14 -87 7 -98 -7 -14
-11 -8 -20 27 -6 25 -17 68 -25 95 l-13 50 -12 -40 c-15 -54 -14 -93 5 -177
10 -42 12 -74 7 -79 -5 -5 -19 30 -33 88 l-24 98 -12 -40 c-17 -53 -17 -116 0
-195 8 -36 10 -71 6 -79 -5 -9 -14 14 -24 60 -22 101 -31 111 -45 55 -14 -58
-14 -86 4 -170 9 -41 11 -75 6 -84 -10 -18 -10 -18 -37 93 -24 101 -29 105
-44 34 -11 -51 -11 -75 -1 -133 33 -184 23 -204 -25 -47 -24 80 -29 90 -37 70
-16 -41 -10 -160 12 -234 42 -139 21 -126 -35 23 -21 56 -42 102 -46 102 -9 0
-13 -71 -10 -135 2 -22 18 -83 36 -135 49 -144 31 -156 -29 -19 -37 85 -51
107 -56 93 -21 -53 0 -162 56 -289 15 -33 22 -62 18 -70 -6 -10 -27 23 -68
100 -33 63 -63 115 -67 115 -5 0 -8 -15 -8 -32 0 -72 21 -154 65 -250 63 -142
56 -153 -16 -23 -33 61 -66 115 -71 120 -17 16 -2 -135 17 -181 10 -24 11 -34
4 -26 -22 21 -29 13 -29 -33 0 -49 34 -148 80 -234 17 -30 28 -56 26 -58 -2
-2 -19 24 -38 58 -19 35 -40 65 -48 67 -24 8 -2 -98 40 -185 34 -71 36 -83 22
-87 -9 -3 -80 -21 -157 -41 -77 -20 -171 -45 -210 -56 l-69 -19 41 43 c43 44
106 137 98 145 -7 7 -95 -47 -147 -90 -89 -74 -50 -14 51 80 88 81 183 204
169 217 -9 10 -156 -89 -205 -138 -43 -41 -53 -47 -53 -31 0 11 12 29 28 41
102 75 272 266 272 304 0 17 -156 -84 -222 -143 -63 -55 -68 -58 -68 -35 0 19
20 41 82 93 114 94 178 160 212 217 15 27 26 50 24 53 -9 9 -172 -97 -235
-152 l-65 -57 7 49 c4 27 15 55 24 61 138 104 199 157 233 201 22 30 38 56 35
58 -8 9 -139 -61 -196 -105 -30 -22 -57 -39 -59 -36 -2 2 -2 15 2 29 4 18 38
47 111 97 89 60 212 175 200 187 -7 8 -169 -69 -217 -103 -27 -20 -52 -34 -54
-32 -3 3 -2 16 1 30 5 19 30 39 93 76 48 27 109 73 137 100 27 28 47 51 44 51
-18 0 -150 -51 -182 -70 -21 -12 -40 -20 -43 -18 -15 15 19 43 105 88 83 44
190 125 179 136 -8 7 -125 -29 -180 -57 -32 -16 -58 -27 -58 -25 0 33 28 60
97 95 84 42 193 123 175 129 -18 6 -122 -27 -170 -53 -23 -13 -42 -22 -42 -20
0 2 4 15 10 29 6 18 33 38 92 67 78 39 184 116 174 126 -7 8 -116 -27 -169
-54 -41 -20 -49 -22 -43 -8 3 9 6 21 6 25 0 5 35 27 77 50 65 34 153 100 153
114 0 7 -113 -25 -142 -40 -32 -16 -38 -17 -38 -5 0 5 40 31 90 57 49 26 104
63 122 82 l33 34 -40 -6 c-22 -4 -64 -18 -94 -32 -30 -13 -55 -23 -57 -22 -1
2 11 35 28 73 30 69 98 262 98 277 0 30 -27 -12 -100 -154 l-84 -163 -13 50
c-7 28 -19 70 -27 95 l-13 45 -12 -57 c-10 -48 -10 -71 5 -148 11 -61 13 -95
6 -102 -6 -6 -17 22 -32 82 -24 97 -34 101 -45 18 -4 -30 -1 -79 10 -133 26
-127 5 -129 -25 -2 l-23 102 -13 -40 c-17 -54 -17 -126 1 -210 21 -96 3 -103
-19 -8 -26 110 -31 114 -46 43 -11 -54 -11 -75 3 -153 23 -130 5 -147 -23 -21
-12 54 -26 103 -30 107 -4 5 -14 -23 -21 -62 -11 -63 -10 -83 7 -171 11 -54
17 -107 13 -117 -6 -17 -7 -16 -12 2 -35 122 -59 196 -63 192 -3 -2 -9 -29
-14 -60 -7 -44 -5 -75 12 -149 41 -189 34 -196 -27 -25 -46 126 -60 123 -53
-12 3 -61 13 -111 35 -174 48 -138 30 -148 -28 -16 -27 62 -50 114 -53 116 -8
9 -17 -91 -11 -130 4 -23 25 -88 47 -145 58 -150 41 -162 -30 -21 -32 63 -62
112 -67 109 -4 -3 -7 -34 -6 -70 2 -64 18 -112 92 -277 12 -29 20 -56 16 -59
-4 -4 -8 -5 -9 -3 -2 2 -28 53 -59 112 -31 60 -60 108 -65 107 -14 -1 -6 -125
11 -167 10 -24 12 -34 4 -25 -21 20 -29 14 -29 -25 1 -63 19 -123 70 -230 52
-110 60 -141 11 -46 -16 32 -36 67 -44 78 -48 63 -23 -87 35 -207 23 -48 38
-91 34 -95 -6 -7 -352 -112 -370 -113 -5 0 0 10 11 23 22 25 63 90 63 102 0
11 -90 -44 -142 -87 -86 -71 -50 -15 50 78 60 56 109 113 129 148 18 31 29 56
24 56 -17 0 -130 -75 -185 -122 -32 -28 -56 -44 -55 -36 2 9 48 55 103 103 63
57 114 113 143 157 25 38 43 71 41 74 -8 8 -154 -89 -216 -143 -57 -50 -63
-54 -60 -31 2 17 36 53 110 116 71 61 123 116 153 159 24 37 43 69 40 71 -9
10 -160 -87 -221 -142 l-67 -61 6 49 c4 27 8 50 10 51 12 8 157 119 172 132
21 18 86 98 99 121 13 22 -107 -37 -177 -88 -37 -28 -69 -50 -70 -50 -2 0 -2
13 1 29 3 23 21 40 98 91 82 54 212 176 200 187 -6 7 -150 -62 -198 -94 -69
-47 -68 -47 -58 -12 5 18 11 33 12 34 2 1 38 21 80 45 71 40 186 140 162 140
-22 0 -129 -41 -172 -66 l-44 -26 7 23 c9 29 -6 18 100 73 81 42 183 121 172
133 -7 7 -158 -46 -194 -69 -36 -22 -37 -21 -24 16 7 17 37 38 98 70 49 25
106 64 128 86 l39 40 -54 -16 c-30 -8 -79 -26 -109 -40 -29 -13 -55 -24 -57
-24 -2 0 2 12 8 26 8 17 40 40 98 70 71 36 160 102 160 119 0 7 -102 -25 -158
-50 -28 -13 -52 -22 -52 -19 0 21 29 48 78 73 61 31 167 109 159 118 -7 6 -86
-16 -131 -38 -22 -10 -41 -17 -44 -15 -10 10 13 28 83 63 42 20 92 55 113 76
l37 38 -30 -6 c-16 -4 -57 -18 -90 -31 -32 -13 -60 -22 -62 -20 -2 2 9 32 25
67 38 85 95 256 90 271 -5 13 -50 -65 -122 -209 -25 -51 -48 -93 -50 -93 -2 0
-12 35 -21 78 -21 94 -28 106 -36 67 -11 -49 -10 -124 3 -192 18 -101 -4 -99
-26 2 -10 47 -22 85 -26 85 -22 0 -25 -117 -7 -207 22 -104 1 -92 -24 13 l-23
99 -12 -40 c-16 -52 -16 -114 0 -197 7 -37 10 -72 6 -78 -4 -6 -15 28 -25 75
-9 47 -21 85 -25 85 -4 0 -12 -25 -18 -55 -9 -44 -8 -74 4 -146 22 -127 4
-132 -25 -8 -19 80 -26 97 -34 83 -19 -33 -20 -146 -2 -233 9 -46 13 -87 8
-92 -4 -4 -21 38 -37 93 -25 88 -31 98 -39 77 -17 -43 -11 -151 12 -233 12
-43 19 -81 16 -84 -7 -8 -8 -6 -50 107 -43 115 -53 116 -54 3 -1 -45 8 -91 33
-166 18 -57 30 -109 26 -115 -3 -7 -26 34 -49 89 -24 55 -48 103 -53 107 -7 4
-9 -25 -6 -83 4 -73 11 -106 41 -180 36 -90 44 -124 30 -124 -5 0 -30 48 -57
105 -61 130 -82 140 -72 33 6 -55 20 -102 58 -191 27 -65 48 -120 45 -123 -3
-3 -29 41 -59 97 -57 109 -78 130 -78 81 0 -33 15 -117 25 -145 6 -13 3 -16
-9 -11 -13 5 -16 -1 -16 -33 0 -54 25 -134 71 -225 51 -101 50 -113 -1 -21
-23 40 -46 73 -52 73 -19 0 1 -101 38 -185 20 -44 36 -86 37 -93 1 -8 -50 -37
-123 -72 -69 -32 -172 -83 -229 -114 -58 -31 -106 -56 -109 -56 -2 0 12 18 32
41 40 44 63 85 53 95 -4 4 -15 1 -24 -6 -10 -8 2 7 27 32 51 52 95 124 82 132
-5 3 -55 -26 -112 -65 -110 -76 -133 -74 -31 3 94 71 140 115 177 171 45 68
30 81 -35 33 -28 -20 -73 -52 -100 -71 -84 -60 -51 -6 48 78 65 56 94 89 120
136 18 34 31 64 28 67 -2 3 -45 -27 -96 -66 -50 -39 -91 -65 -91 -58 0 7 38
49 85 93 65 63 91 96 116 149 17 37 30 69 28 71 -3 2 -46 -32 -97 -76 -50 -44
-92 -76 -92 -71 0 5 34 47 75 92 56 63 79 97 94 141 11 33 16 59 12 59 -4 0
-38 -32 -76 -70 -37 -39 -70 -68 -73 -66 -5 6 7 24 82 119 35 46 59 88 70 125
8 31 14 57 12 59 -1 2 -32 -30 -67 -71 -35 -41 -67 -75 -71 -75 -13 -1 4 33
37 74 17 22 40 54 52 70 22 32 57 135 45 134 -4 0 -32 -29 -62 -64 -62 -73
-83 -70 -23 3 22 26 49 61 60 77 22 32 57 135 45 134 -4 0 -34 -32 -67 -70
-60 -69 -92 -80 -38 -13 63 80 93 128 104 166 5 22 9 41 7 43 -2 2 -30 -28
-63 -65 -71 -81 -88 -67 -20 16 53 66 69 93 83 149 l11 40 -65 -70 -65 -70 7
178 c5 128 4 177 -4 177 -7 0 -14 -10 -17 -22 -13 -61 -35 -201 -41 -268 -6
-74 -7 -75 -23 -50 -20 31 -113 131 -118 127 -9 -10 36 -111 79 -174 48 -72
57 -93 38 -93 -5 0 -10 4 -10 8 0 12 -100 122 -111 122 -15 0 27 -97 70 -164
25 -38 41 -74 41 -92 l-1 -29 -22 30 c-38 52 -121 137 -125 127 -6 -20 37
-112 87 -184 41 -60 50 -79 43 -97 -8 -22 -9 -21 -35 16 -34 49 -117 131 -117
115 0 -29 41 -116 88 -183 40 -58 49 -80 45 -101 -5 -27 -6 -26 -48 30 -23 31
-61 75 -84 97 l-42 40 7 -30 c13 -54 42 -114 94 -190 37 -54 50 -84 48 -103
-3 -26 -4 -25 -30 18 -30 50 -118 153 -125 147 -11 -11 32 -121 77 -200 49
-86 57 -111 42 -134 -5 -7 -19 11 -40 50 -32 63 -120 182 -128 174 -13 -13 23
-127 74 -231 53 -109 62 -148 43 -169 -4 -4 -20 21 -35 57 -15 35 -48 93 -73
128 l-45 63 6 -68 c4 -53 17 -96 57 -184 50 -113 51 -117 38 -160 -6 -24 -15
-40 -19 -36 -4 4 -19 42 -34 83 -15 41 -48 109 -74 150 l-47 75 -3 -36 c-5
-54 22 -165 67 -281 43 -108 46 -124 32 -146 -5 -9 -17 13 -35 65 -25 71 -111
233 -123 233 -3 0 -2 -37 2 -82 4 -56 20 -120 47 -198 47 -136 53 -160 41
-160 -5 0 -17 26 -27 58 -10 31 -36 90 -59 131 l-42 74 -3 -70 c-2 -59 3 -87
37 -188 26 -75 37 -124 32 -133 -6 -11 -12 -5 -21 24 -7 21 -29 68 -49 104
l-36 65 -3 -54 c-2 -38 5 -81 23 -139 14 -46 25 -85 23 -87 -58 -46 -200 -130
-220 -130 l-27 0 35 34 c39 38 90 119 80 128 -3 3 -51 -24 -107 -61 -55 -37
-103 -65 -106 -62 -3 2 24 26 58 53 97 73 159 133 191 182 52 82 35 81 -88 -4
-121 -85 -123 -62 -4 39 75 64 96 88 126 148 41 82 45 82 -86 -20 -44 -34 -80
-58 -80 -51 0 6 41 51 91 100 66 65 97 104 115 145 14 31 24 60 22 65 -2 4
-42 -26 -90 -67 -49 -42 -88 -71 -88 -65 0 6 31 45 70 87 47 52 76 94 90 132
11 30 19 59 18 64 -2 5 -36 -24 -76 -65 -87 -90 -95 -75 -12 24 57 68 105 164
98 196 -2 9 -30 -16 -70 -62 -82 -92 -91 -73 -13 27 35 45 61 90 71 125 9 30
14 56 12 58 -1 2 -30 -28 -63 -65 -32 -38 -61 -67 -63 -65 -5 5 10 27 73 108
38 50 85 160 73 172 -1 2 -30 -28 -63 -66 -61 -70 -92 -92 -59 -41 9 15 34 47
55 72 35 42 69 113 69 146 0 9 -102 -90 -117 -115 -2 -2 -6 -2 -9 1 -8 9 9 37
55 93 44 53 65 92 75 140 6 27 0 24 -58 -37 l-63 -68 5 180 c3 116 1 180 -5
180 -11 0 -53 -222 -54 -286 0 -21 -4 -47 -8 -57 -6 -16 -11 -14 -34 20 -31
45 -95 109 -101 102 -9 -9 44 -123 84 -180 23 -33 40 -67 38 -76 -2 -12 -11
-5 -31 24 -33 48 -85 99 -92 91 -10 -10 31 -103 73 -165 23 -34 42 -69 42 -77
0 -30 -18 -25 -44 12 -25 37 -116 131 -116 121 0 -28 43 -119 86 -186 35 -52
54 -91 54 -110 l-1 -28 -27 35 c-37 49 -124 141 -129 137 -10 -11 43 -127 87
-190 29 -44 50 -84 50 -100 0 -38 -10 -33 -47 21 -44 65 -123 141 -123 119 0
-35 39 -118 93 -196 44 -64 54 -86 48 -103 -7 -19 -10 -17 -34 23 -14 24 -47
67 -71 94 -39 43 -45 47 -46 28 0 -36 34 -117 83 -196 34 -55 44 -79 40 -99
-3 -16 -8 -28 -12 -28 -4 0 -21 28 -38 63 -29 58 -120 183 -128 175 -12 -12
32 -150 79 -245 42 -84 55 -119 50 -138 -3 -14 -9 -25 -13 -25 -3 0 -19 30
-35 66 -37 81 -109 186 -114 163 -7 -36 29 -161 72 -253 l46 -98 -19 -42 c-12
-27 -20 -36 -24 -26 -42 118 -64 168 -100 224 -23 36 -44 66 -47 66 -3 0 -3
-35 1 -77 7 -73 39 -182 89 -298 16 -37 18 -51 9 -68 -11 -20 -13 -19 -26 19
-43 114 -57 146 -93 205 l-40 64 0 -69 c0 -72 20 -153 70 -282 15 -40 24 -77
20 -84 -4 -7 -16 13 -29 51 -11 35 -40 96 -64 137 l-42 75 -3 -66 c-2 -54 4
-86 38 -189 43 -133 46 -148 30 -148 -5 0 -10 6 -10 14 0 22 -80 176 -92 176
-15 0 -2 -108 23 -194 l21 -69 -59 -53 c-59 -54 -80 -66 -69 -39 15 40 -21 5
-86 -83 -88 -117 -105 -104 -25 19 30 46 64 102 75 125 23 46 55 160 49 177
-3 11 -71 -76 -125 -160 -15 -24 -30 -43 -33 -43 -13 0 8 66 33 106 74 116
133 283 110 306 -5 5 -34 -32 -67 -87 -32 -53 -62 -98 -67 -101 -16 -10 4 50
37 111 54 98 83 177 91 244 10 88 -6 79 -73 -44 -64 -118 -66 -89 -4 57 43
101 65 218 42 218 -7 0 -32 -42 -57 -92 -35 -73 -44 -85 -40 -58 2 19 20 79
40 133 26 72 36 114 36 157 0 33 -4 60 -9 60 -4 0 -26 -42 -47 -92 -50 -119
-56 -89 -10 43 35 98 49 209 27 209 -5 0 -24 -36 -43 -81 -45 -110 -48 -82 -4
40 35 98 52 217 31 223 -5 2 -23 -32 -41 -75 -56 -139 -60 -99 -5 51 31 84 42
177 20 170 -6 -2 -27 -40 -46 -83 -30 -71 -33 -76 -30 -40 2 22 16 73 31 113
28 76 39 164 21 171 -5 1 -23 -29 -39 -68 -16 -39 -32 -71 -35 -71 -3 0 -21
91 -39 202 -18 112 -35 205 -38 207 -15 15 -16 -29 -5 -181 6 -95 14 -194 18
-219 l5 -46 -72 69 c-40 38 -74 67 -77 65 -10 -11 50 -117 107 -185 70 -86 82
-129 18 -61 -44 45 -108 95 -108 84 0 -17 56 -112 96 -162 64 -79 61 -74 69
-112 7 -33 6 -32 -64 38 -95 94 -114 95 -67 3 13 -26 51 -79 84 -118 37 -44
61 -83 64 -102 2 -18 4 -32 3 -32 -1 0 -35 32 -75 71 -127 125 -109 37 25
-124 50 -59 65 -84 65 -109 l0 -31 -63 64 c-59 61 -127 117 -127 104 0 -25 73
-146 131 -214 44 -54 69 -93 69 -108 0 -22 -10 -15 -71 51 -40 42 -80 81 -90
87 -18 9 -18 7 2 -43 24 -62 53 -109 121 -195 42 -54 49 -68 46 -100 l-3 -38
-38 59 c-41 63 -134 166 -150 166 -27 0 31 -128 117 -259 56 -84 66 -106 66
-143 l0 -43 -44 76 c-46 78 -129 178 -140 168 -14 -14 38 -142 104 -257 63
-111 70 -128 70 -177 0 -30 -4 -55 -8 -55 -4 0 -25 35 -46 78 -43 87 -145 234
-157 227 -17 -11 35 -159 109 -305 62 -124 77 -161 72 -185 -5 -28 -7 -26 -42
47 -32 67 -84 150 -133 212 -53 68 -7 -104 70 -263 36 -73 65 -139 65 -147 0
-27 -17 -14 -36 29 -27 60 -114 188 -124 182 -17 -10 19 -131 72 -248 40 -86
27 -109 -23 -40 -27 39 -35 44 -37 28 -1 -11 5 -45 13 -75 9 -30 17 -59 18
-65 1 -5 -81 -176 -183 -379 -119 -238 -186 -362 -188 -348 -2 12 21 65 53
123 80 141 120 232 140 317 10 40 16 74 14 77 -10 10 -132 -156 -180 -246 -30
-53 -57 -95 -61 -93 -19 12 -5 58 43 141 115 199 189 374 189 448 0 17 -3 16
-25 -10 -80 -95 -121 -155 -179 -259 -61 -111 -64 -115 -70 -85 -11 57 -7 69
73 203 43 73 93 160 110 194 32 63 75 204 69 224 -10 30 -191 -222 -254 -355
-10 -20 -21 -37 -24 -37 -4 0 -10 36 -14 79 l-6 79 54 79 c30 44 75 113 100
155 45 76 101 216 91 226 -12 12 -118 -107 -182 -206 l-68 -104 -3 61 -3 62
78 107 c43 59 90 126 105 148 32 50 78 156 78 181 0 26 -130 -106 -203 -207
l-62 -85 -3 57 -3 57 87 103 c74 89 178 258 158 258 -17 0 -144 -113 -184
-164 l-45 -57 -3 46 c-3 45 -2 47 88 143 78 82 180 227 180 255 0 17 -97 -60
-179 -141 l-84 -84 8 58 c6 54 11 62 98 159 82 90 182 241 146 220 -41 -25
-130 -99 -173 -144 -26 -29 -50 -50 -52 -48 -2 2 -1 26 3 53 6 43 15 58 78
124 39 41 82 91 97 110 33 45 80 130 71 130 -15 0 -123 -87 -171 -138 l-53
-57 4 52 c4 48 9 57 79 133 66 70 152 200 133 200 -11 0 -86 -59 -144 -114
l-54 -51 7 34 c4 23 30 60 81 117 68 74 145 184 145 206 0 16 -93 -55 -152
-116 -48 -50 -58 -56 -54 -36 27 131 58 585 36 530 -10 -27 -74 -361 -86 -448
-4 -29 -10 -54 -14 -57 -3 -2 -28 43 -55 101 -26 57 -52 104 -57 104 -22 0 5
-128 49 -238 37 -93 44 -119 38 -150 l-7 -37 -56 115 -56 115 -4 -48 c-3 -53
12 -110 65 -231 27 -61 33 -86 28 -113 -6 -34 -8 -32 -60 82 -30 65 -57 120
-60 123 -3 3 -5 -24 -5 -60 0 -67 23 -147 74 -262 14 -32 26 -68 26 -80 0 -23
-20 -61 -20 -39 0 21 -92 213 -101 213 -24 0 6 -155 51 -266 31 -76 40 -110
38 -144 -3 -36 -5 -41 -12 -25 -5 11 -34 72 -65 135 l-56 115 -3 -53 c-4 -67
16 -145 69 -263 40 -89 61 -179 43 -179 -5 0 -33 48 -63 105 -75 147 -80 152
-81 89 0 -65 21 -136 77 -254 41 -86 69 -180 54 -180 -3 0 -19 24 -35 53 -24
42 -120 199 -133 216 -12 16 -13 -19 -3 -81 14 -85 46 -159 125 -293 45 -77
56 -103 53 -131 -3 -36 -3 -35 -81 77 -124 183 -124 183 -101 69 18 -86 48
-149 133 -278 50 -75 61 -100 61 -133 l0 -41 -71 93 c-97 127 -151 191 -156
185 -9 -9 39 -162 68 -216 16 -30 61 -98 99 -150 76 -104 92 -133 88 -163 -2
-15 -32 16 -112 116 -106 134 -134 160 -121 115 45 -159 69 -205 190 -364 41
-54 75 -102 75 -106 0 -5 -46 49 -102 118 -56 70 -104 122 -106 115 -7 -21 37
-145 73 -206 20 -33 68 -101 107 -152 38 -50 68 -99 66 -108 -2 -10 -23 9 -61
57 -84 107 -97 121 -102 116 -3 -3 4 -34 15 -70 21 -67 65 -142 144 -242 25
-33 46 -64 46 -70 0 -6 -14 -46 -30 -89 -17 -42 -42 -125 -56 -184 -29 -120
-27 -198 6 -262 16 -32 102 -136 152 -184 22 -21 18 -31 53 128 31 137 87 328
117 397 l20 46 28 -31 28 -32 -8 45 c-11 61 -5 62 14 3 9 -27 30 -65 46 -84
l29 -34 -5 40 -6 40 25 -50 c13 -27 31 -56 40 -64 15 -12 17 -11 17 6 0 11 -7
42 -15 68 -8 27 -12 51 -10 53 3 3 7 -1 9 -9 32 -90 50 -130 71 -159 l25 -34
0 35 c-1 19 -7 52 -15 74 -8 22 -15 41 -15 43 0 1 8 -2 18 -7 10 -5 23 -31 30
-58 7 -27 24 -67 38 -88 l25 -40 -5 65 c-7 75 6 69 23 -10 6 -30 21 -66 32
-80 l21 -25 -5 63 c-6 71 7 76 18 6 14 -95 43 -116 46 -34 1 19 3 26 5 15 20
-102 27 -125 35 -125 8 0 13 26 12 72 0 41 16 14 22 -37 4 -30 13 -62 21 -72
12 -16 13 -13 14 30 0 30 4 46 10 42 6 -3 10 -18 10 -33 0 -41 20 -103 31 -97
5 4 9 22 9 41 0 21 4 33 10 29 6 -3 10 -19 10 -35 0 -16 5 -41 12 -57 11 -27
12 -27 15 -6 6 33 23 28 23 -6 0 -16 3 -36 6 -45 11 -28 24 -17 24 19 0 19 5
35 10 35 6 0 10 -3 10 -8 0 -12 121 -115 127 -108 4 4 -9 23 -28 44 -19 20
-43 48 -54 60 l-20 24 40 -8 c36 -6 39 -6 27 9 -8 9 -22 19 -32 22 -11 3 -17
12 -14 19 3 7 -7 18 -20 26 -14 7 -23 17 -20 22 3 4 -8 16 -25 26 -17 9 -31
22 -31 28 0 6 -11 17 -25 24 -15 8 -23 20 -21 27 4 8 -8 20 -30 30 -21 11 -33
22 -29 31 3 8 -10 20 -38 32 -23 11 -34 20 -24 20 46 0 -7 34 -93 60 -35 10
-35 10 -3 5 18 -2 35 -1 37 4 7 10 -34 28 -106 46 l-53 14 47 -6 c29 -3 48 -1
48 5 0 12 -71 42 -103 43 -21 1 -21 1 3 8 24 8 24 8 -14 24 -21 10 -40 17 -43
17 -2 0 -11 7 -19 15 -8 8 -31 17 -52 21 -20 4 -45 13 -54 21 -9 8 -39 20 -67
26 l-51 12 86 190 c48 105 90 194 95 199 4 5 14 -7 22 -25 9 -19 27 -47 41
-64 l25 -30 1 28 c0 15 -7 43 -14 62 -9 20 -11 35 -5 35 5 0 12 -8 15 -18 17
-49 65 -141 89 -167 l26 -30 -6 48 c-4 26 -13 64 -22 85 -8 20 -10 33 -5 27 5
-5 24 -44 41 -85 18 -41 46 -91 63 -110 l30 -35 -6 52 c-4 28 -13 68 -22 88
-8 21 -13 39 -11 41 8 9 26 -23 56 -101 18 -44 45 -96 62 -115 l31 -35 -7 55
c-4 30 -15 74 -25 97 -11 24 -16 43 -12 43 24 0 53 -37 67 -88 9 -31 29 -77
43 -102 l27 -45 3 44 c2 23 -2 57 -7 74 -12 34 -8 45 12 29 7 -6 19 -40 26
-75 7 -36 23 -82 36 -103 l23 -39 8 29 c4 16 2 49 -4 75 -11 51 -9 59 11 42 8
-6 17 -36 21 -67 3 -31 14 -70 23 -87 l16 -32 9 30 c5 17 7 45 4 63 -3 23 -1
32 7 29 7 -2 15 -31 18 -64 3 -34 12 -76 19 -94 12 -28 15 -30 21 -13 4 10 8
41 8 68 1 40 3 46 15 37 7 -6 16 -35 20 -64 3 -29 11 -68 18 -87 10 -30 12
-31 19 -14 4 10 8 39 8 63 1 65 27 37 34 -38 2 -32 11 -69 18 -82 12 -23 12
-23 20 -4 4 11 8 37 8 59 1 33 3 37 16 26 9 -8 15 -29 15 -56 0 -51 19 -101
32 -82 4 7 8 28 8 46 0 20 4 31 10 27 6 -3 10 -23 10 -44 0 -44 18 -101 31
-101 5 0 9 20 9 45 0 25 3 45 6 45 3 0 31 -23 62 -51 72 -66 121 -103 128 -97
3 3 -29 42 -71 86 l-75 80 52 -13 c101 -27 62 13 -45 46 -76 24 -85 36 -13 18
26 -6 49 -9 52 -6 6 6 -26 26 -71 44 -29 11 -29 12 -5 12 22 1 23 3 9 16 -8 9
-37 25 -65 36 -27 11 -39 18 -26 15 12 -2 22 0 22 4 0 16 -45 41 -113 61 -37
12 -66 23 -64 25 2 2 27 -3 56 -12 121 -36 68 13 -63 59 -45 15 -70 25 -56 23
67 -13 110 -18 110 -13 0 11 -63 40 -125 59 l-60 18 60 -7 c54 -5 59 -4 47 10
-16 19 -81 41 -172 59 -77 14 -58 23 23 10 31 -5 57 -5 57 -1 0 17 -66 42
-159 60 l-96 19 83 -6 c48 -3 82 -2 82 4 0 13 -74 40 -140 51 -55 9 -55 9 -12
10 23 0 42 5 42 9 0 5 -25 17 -55 27 -30 11 -55 23 -55 27 0 4 -33 17 -72 29
-40 12 -76 26 -79 31 -9 13 -97 38 -138 39 -81 1 -81 -3 18 194 111 221 169
325 181 325 4 0 18 -28 29 -62 24 -70 81 -156 81 -122 0 11 -7 46 -15 77 -18
68 -18 70 -6 62 5 -3 21 -41 36 -84 24 -73 71 -161 92 -174 13 -8 -2 97 -22
152 -18 51 -18 54 -6 47 5 -3 21 -43 36 -88 29 -88 51 -134 85 -183 l22 -30
-6 66 c-3 36 -14 89 -25 118 -10 28 -16 51 -11 51 15 0 27 -26 54 -115 26 -83
53 -141 89 -189 13 -18 14 -14 10 35 -2 30 -13 84 -24 121 -24 84 -24 83 9 58
23 -17 32 -37 47 -98 20 -89 76 -208 83 -178 4 19 -14 153 -25 185 -4 12 0 11
15 -4 14 -13 27 -48 37 -100 18 -85 52 -175 66 -175 11 0 11 81 -1 140 -9 50
-7 58 13 41 8 -6 17 -40 21 -75 7 -70 33 -156 47 -156 5 0 9 34 9 76 0 64 2
75 14 65 9 -7 15 -41 18 -94 5 -90 26 -154 39 -120 4 10 8 47 8 82 1 63 1 64
21 46 16 -14 20 -31 20 -78 0 -61 17 -137 31 -137 10 0 23 105 15 125 -3 8 -2
15 3 15 19 0 29 -29 34 -100 2 -41 10 -88 17 -105 l13 -30 7 25 c5 14 8 47 9
74 2 75 27 43 33 -42 3 -37 11 -79 19 -92 13 -24 14 -23 24 35 9 49 12 55 18
35 4 -14 7 -43 7 -66 0 -49 18 -106 31 -98 5 3 9 30 9 60 0 30 3 54 8 53 4 0
23 -19 42 -42 47 -56 160 -162 160 -151 0 5 -36 54 -79 109 -43 55 -78 101
-77 102 1 1 24 -4 51 -12 63 -19 72 -19 51 4 -16 17 -42 31 -130 66 -54 21
-40 29 18 9 97 -33 56 19 -44 56 -30 11 -61 23 -69 26 -8 2 -12 7 -9 9 3 3 24
-2 48 -10 66 -23 80 -19 44 14 -18 16 -61 38 -98 51 -36 12 -68 26 -71 30 -3
5 20 0 51 -10 67 -23 64 -23 64 -10 0 16 -84 66 -135 80 -24 7 -50 19 -56 26
-8 10 6 8 46 -6 82 -28 97 -25 55 10 -19 17 -69 42 -112 58 -94 33 -103 48
-13 22 36 -10 67 -15 70 -10 9 14 -91 67 -162 86 -81 22 -82 36 -2 17 34 -8
71 -13 83 -11 37 6 -62 56 -155 79 -46 12 -88 26 -94 31 -7 7 -2 9 15 5 14 -4
53 -9 85 -12 l60 -7 -25 21 c-29 24 -88 44 -175 61 -130 26 -89 35 58 14 48
-7 48 10 -1 34 -45 23 -107 38 -189 48 -35 3 -63 10 -63 13 0 4 30 4 68 0 91
-11 112 -11 112 0 0 10 -92 51 -115 51 -9 0 -13 5 -10 10 8 13 -87 56 -145 66
-35 5 -41 8 -25 14 17 7 15 10 -20 25 -22 10 -76 23 -120 29 -56 8 -81 16 -82
26 -5 26 95 147 213 257 64 60 121 108 127 108 7 0 24 -36 39 -79 25 -71 70
-156 83 -156 9 0 -7 101 -21 143 -11 30 -11 38 -1 35 6 -3 26 -47 43 -99 32
-99 60 -158 94 -199 l20 -25 -6 55 c-3 30 -14 86 -25 124 -11 37 -18 70 -15
73 7 7 18 -22 56 -143 26 -86 95 -223 105 -212 8 8 -17 161 -35 213 -11 32
-18 61 -15 64 14 13 36 -33 65 -134 31 -108 51 -155 91 -218 l21 -32 -5 75
c-3 41 -15 106 -27 143 -12 38 -19 71 -17 74 3 2 19 -8 35 -24 24 -23 34 -47
55 -136 22 -94 70 -207 83 -194 4 4 -12 163 -22 212 l-6 30 22 -21 c17 -16 27
-47 41 -125 18 -103 53 -199 72 -199 10 0 3 143 -9 205 l-6 30 21 -20 c17 -16
24 -40 31 -107 6 -47 18 -106 29 -130 18 -42 19 -42 26 -16 4 14 5 58 3 96 -3
67 -2 70 15 55 12 -12 17 -32 17 -73 0 -65 13 -141 31 -185 l12 -30 7 30 c4
17 8 61 9 99 1 68 1 69 21 51 16 -15 20 -31 20 -83 0 -78 29 -196 41 -166 4
10 8 52 8 93 1 71 2 74 20 57 14 -13 19 -37 24 -104 6 -92 28 -174 41 -154 4
7 8 46 9 87 1 41 3 75 5 75 16 0 31 -44 32 -91 0 -30 7 -80 17 -110 15 -48 17
-51 24 -29 4 14 7 49 8 78 1 77 17 55 26 -35 7 -86 23 -153 37 -153 8 0 13 57
10 120 l-1 35 47 -55 c75 -88 180 -195 186 -189 3 2 -35 60 -85 128 -49 68
-88 125 -86 127 2 2 30 -5 62 -16 32 -11 61 -18 64 -15 10 11 -55 55 -122 81
-37 15 -73 34 -80 43 -10 12 -9 14 8 7 61 -24 107 -38 112 -32 16 15 -47 55
-161 101 -59 23 -37 28 29 5 76 -26 83 -25 54 6 -26 28 -91 64 -151 83 -20 7
-42 19 -48 27 -9 9 8 6 53 -11 38 -14 69 -20 72 -15 8 14 -65 64 -132 90 -108
43 -111 62 -5 26 40 -14 72 -21 72 -16 0 20 -77 70 -154 100 -124 49 -133 66
-16 30 72 -22 80 -23 80 -12 0 16 -99 72 -165 93 -107 34 -113 50 -10 27 47
-11 89 -17 93 -13 18 17 -100 76 -203 101 -38 9 -77 23 -85 31 -13 13 -13 14
5 9 20 -5 143 -26 158 -26 4 0 7 4 7 9 0 18 -125 70 -205 86 -44 9 -87 23 -95
31 -13 13 -11 14 15 9 75 -13 176 -21 181 -13 11 17 -122 68 -221 84 -55 9
-104 21 -110 26 -7 7 4 8 30 4 101 -14 175 -18 175 -9 0 12 -109 63 -133 63
-11 0 -14 6 -11 15 9 23 -90 63 -198 80 -83 13 -86 14 -31 11 35 -1 63 2 63 6
0 17 -86 47 -170 59 l-84 12 39 35 c73 63 328 251 335 247 4 -3 19 -42 34 -87
14 -46 40 -108 58 -138 31 -51 33 -53 36 -28 3 24 -1 51 -24 163 -5 22 -3 27
5 20 6 -6 25 -58 42 -115 32 -109 63 -178 96 -219 l19 -24 -7 72 c-7 62 -23
135 -46 198 -5 16 -4 16 10 3 8 -8 32 -71 52 -140 34 -115 81 -220 107 -236
17 -11 -1 128 -28 214 -13 42 -21 78 -18 81 14 15 44 -47 68 -144 28 -111 77
-235 102 -256 29 -24 9 149 -30 259 -18 50 -10 53 31 10 26 -28 36 -52 56
-144 14 -61 38 -136 54 -165 l28 -54 3 61 c2 34 -4 90 -12 125 -8 35 -12 66
-10 68 3 3 13 -4 24 -15 14 -13 25 -53 40 -137 20 -118 53 -217 73 -217 10 0
4 182 -9 230 l-7 25 24 -23 c20 -19 26 -39 36 -125 6 -56 20 -122 31 -147 l19
-45 8 58 c4 33 5 82 2 109 -6 48 -6 50 12 34 14 -13 19 -38 24 -114 3 -53 14
-122 23 -152 15 -49 18 -52 25 -30 4 14 8 66 8 115 2 88 2 90 20 68 13 -16 20
-47 25 -115 8 -107 23 -168 43 -168 13 0 18 51 14 132 -2 21 1 38 6 38 19 0
32 -47 36 -135 10 -177 57 -215 57 -46 0 53 2 62 14 52 8 -7 16 -43 20 -94 4
-45 14 -104 24 -132 16 -49 16 -50 23 -20 4 17 7 56 8 88 1 77 21 65 21 -12 0
-66 13 -142 31 -186 l12 -30 8 45 c4 25 8 67 8 94 l1 49 37 -49 c45 -60 183
-218 195 -222 20 -8 3 23 -82 148 -50 73 -89 134 -87 136 2 2 30 -5 62 -16 32
-11 61 -18 63 -15 14 14 -60 68 -130 97 -43 18 -78 36 -78 40 0 11 -2 11 65
-12 32 -11 61 -18 63 -15 14 14 -60 68 -130 97 -43 18 -78 36 -78 40 0 11 -2
11 70 -17 136 -53 76 19 -75 91 -97 46 -102 57 -11 23 120 -46 64 22 -71 87
-51 24 -95 49 -98 54 -8 13 -11 14 78 -19 80 -30 102 -28 64 6 -39 35 -80 59
-152 88 -65 26 -112 55 -90 55 6 0 39 -9 73 -20 85 -27 101 -27 76 1 -26 29
-87 62 -164 89 -115 41 -120 58 -10 30 111 -29 123 -27 76 16 -30 25 -66 43
-140 65 -126 38 -146 46 -146 58 0 5 15 5 37 0 76 -17 153 -26 153 -18 0 28
-140 89 -241 104 -25 4 -56 16 -69 27 l-25 19 35 -5 c85 -14 185 -24 190 -20
3 3 -4 13 -15 21 -44 33 -125 62 -220 78 -121 20 -154 40 -50 31 39 -4 87 -9
108 -12 83 -13 8 47 -97 77 -44 13 -53 18 -32 18 23 1 26 4 17 15 -21 25 -110
57 -199 71 -73 12 -78 14 -29 11 38 -2 57 1 57 9 0 20 -91 55 -175 68 l-80 13
155 104 c85 57 163 104 174 104 15 1 25 -19 50 -100 29 -88 97 -224 113 -224
12 0 -7 147 -26 203 -20 56 -20 57 -1 47 12 -7 27 -37 40 -83 41 -142 80 -240
121 -303 23 -36 43 -63 44 -62 10 11 -20 193 -44 267 -25 79 -26 89 -11 81 11
-6 26 -39 39 -88 58 -214 149 -417 176 -390 3 2 0 42 -5 89 -8 71 -27 147 -66
273 -6 18 -5 18 23 -2 24 -17 32 -35 47 -99 47 -197 125 -388 165 -401 25 -8
-11 217 -53 337 -9 24 -15 46 -13 48 2 1 24 -13 49 -32 41 -32 47 -42 57 -98
26 -134 52 -225 83 -289 17 -38 35 -68 40 -68 15 0 8 155 -11 235 -11 44 -17
82 -15 84 3 3 17 -8 33 -25 25 -25 31 -45 50 -162 22 -137 65 -272 90 -280 11
-4 13 17 8 124 -4 71 -9 145 -13 164 l-6 35 29 -28 c28 -26 30 -35 41 -147 8
-82 21 -142 39 -192 l27 -73 9 45 c4 25 6 89 5 142 l-3 97 22 -21 c19 -17 23
-32 23 -77 0 -138 40 -335 62 -313 7 7 13 67 16 141 l5 129 23 -27 c20 -25 25
-45 33 -152 11 -136 42 -254 55 -209 4 14 10 72 13 129 l6 104 24 -27 c20 -24
23 -37 23 -115 0 -55 7 -117 20 -166 32 -126 40 -119 47 45 l6 122 22 -28 c19
-23 23 -45 28 -129 6 -112 38 -229 51 -185 3 14 9 63 13 109 9 117 28 86 36
-56 6 -119 32 -219 49 -188 6 9 11 59 12 111 0 52 2 94 3 94 2 0 30 -35 63
-77 74 -93 232 -271 243 -272 19 -2 -1 31 -105 180 -62 87 -119 168 -127 179
-13 19 -6 18 68 -10 124 -45 139 -40 63 23 -23 20 -79 50 -125 67 -77 30 -117
54 -117 70 0 4 36 -6 81 -21 106 -38 121 -38 83 2 -32 34 -93 68 -181 100 -60
23 -83 36 -83 49 0 5 43 -7 95 -26 52 -18 97 -30 100 -25 7 12 -65 76 -112 99
-21 11 -70 32 -110 47 -40 15 -74 34 -78 42 -4 11 -1 13 12 8 93 -37 155 -56
160 -51 22 22 -126 119 -237 155 -19 6 -41 21 -49 32 -12 20 -11 21 6 14 60
-24 187 -64 192 -60 9 10 -64 77 -111 101 -26 13 -82 38 -125 55 -43 17 -84
35 -90 41 -31 25 -6 23 89 -7 57 -18 107 -30 111 -28 5 3 -4 19 -20 35 -32 34
-136 86 -238 118 -67 22 -100 38 -92 47 2 2 51 -8 108 -22 107 -26 149 -31
149 -17 0 4 -28 26 -63 49 -58 39 -150 73 -272 102 -47 11 -94 36 -84 45 2 2
47 -4 99 -15 160 -31 185 -24 102 30 -61 39 -111 56 -236 82 -69 14 -107 27
-121 41 l-20 20 35 -6 c138 -24 250 -31 250 -16 0 5 -29 25 -64 45 -64 35
-177 66 -301 81 -33 4 -69 13 -80 21 -18 14 -15 15 35 9 30 -3 98 -9 150 -12
85 -6 93 -5 80 9 -27 27 -121 70 -194 88 -47 13 -57 17 -28 14 118 -14 -33 74
-170 99 -46 8 -109 18 -141 22 -31 3 -59 9 -61 13 -3 4 21 4 52 0 31 -4 74 -8
95 -8 103 -2 -23 63 -169 87 l-106 18 108 66 c60 36 151 89 202 118 l92 52 32
-19 c27 -16 36 -33 70 -136 33 -102 112 -256 124 -244 8 8 -17 170 -35 228
l-19 60 20 -13 c14 -9 32 -53 58 -138 47 -154 64 -197 115 -284 36 -62 40 -65
43 -41 6 49 -16 180 -47 274 -16 50 -26 91 -21 91 17 0 38 -40 55 -105 38
-146 87 -283 127 -352 23 -40 45 -73 50 -73 24 0 -3 192 -46 325 -14 43 -24
81 -22 83 2 1 16 -7 30 -20 21 -18 33 -49 60 -153 19 -71 44 -159 56 -195 23
-71 97 -203 108 -196 16 10 -8 196 -41 309 -18 64 -32 117 -29 117 2 0 26 -18
52 -40 43 -36 49 -46 59 -102 37 -189 104 -388 132 -388 17 0 10 160 -12 252
-12 49 -19 91 -17 94 2 2 18 -11 36 -29 28 -29 33 -44 52 -162 11 -71 25 -148
31 -170 15 -55 60 -155 70 -155 14 0 10 198 -5 280 -8 41 -13 76 -12 77 1 2
16 -12 33 -30 30 -30 32 -39 47 -168 13 -120 43 -235 67 -263 11 -13 22 158
15 233 l-7 66 24 -25 c22 -23 25 -38 35 -170 7 -102 17 -164 33 -210 l23 -65
9 40 c5 22 10 93 11 157 1 112 2 116 19 100 32 -28 36 -46 47 -178 10 -133 28
-215 48 -222 14 -4 13 -11 21 141 l6 119 24 -33 c21 -29 25 -48 32 -158 7
-127 33 -241 49 -225 15 15 28 133 22 196 -2 32 -3 58 0 58 2 0 14 -14 27 -31
19 -25 24 -50 31 -147 5 -64 16 -139 26 -166 16 -47 18 -48 26 -25 5 13 12 66
15 117 5 76 8 89 18 75 7 -10 15 -69 19 -131 7 -106 13 -137 39 -207 l12 -30
6 30 c4 17 7 72 8 123 1 59 5 91 11 87 5 -3 36 -41 69 -83 81 -108 254 -297
259 -284 3 11 -45 86 -185 284 -45 65 -80 118 -77 118 3 0 44 -14 91 -30 92
-33 103 -35 103 -20 0 21 -102 88 -184 120 -47 19 -96 45 -108 58 -28 30 -25
30 94 -14 42 -16 80 -25 84 -21 10 10 -34 55 -81 82 -22 12 -76 37 -120 54
-45 18 -86 40 -92 51 -12 18 17 10 169 -49 46 -17 41 5 -12 52 -31 28 -81 57
-137 81 -114 47 -136 58 -140 73 -3 8 33 -1 91 -22 52 -19 97 -31 100 -26 16
25 -138 125 -245 160 -20 6 -47 23 -60 38 -14 15 -18 24 -9 21 8 -3 59 -20
112 -39 136 -48 140 -32 15 61 -21 16 -82 46 -135 66 -82 32 -149 70 -139 80
1 1 52 -12 112 -31 61 -18 114 -30 119 -27 14 8 -61 70 -124 102 -30 15 -93
40 -140 55 -84 27 -110 40 -110 55 0 4 53 -6 117 -21 175 -43 191 -38 96 28
-63 44 -155 80 -275 109 -54 12 -85 25 -100 42 -22 23 -22 24 -3 19 58 -18
250 -46 258 -38 9 9 -65 60 -133 90 -25 11 -98 31 -163 44 -69 15 -126 32
-138 43 -10 9 -18 19 -16 21 2 1 55 -4 117 -12 147 -19 196 -20 181 -2 -6 8
-9 16 -6 18 17 18 -38 303 -81 412 -6 17 -5 18 15 5 14 -8 28 -37 42 -83 77
-268 114 -362 176 -457 37 -55 46 -48 38 25 -13 125 -49 276 -91 381 -7 19 -7
19 26 0 40 -23 41 -27 85 -189 19 -71 46 -164 60 -205 26 -77 102 -220 117
-220 25 0 -2 199 -47 351 -19 65 -35 121 -35 125 0 3 26 -16 59 -43 57 -47 59
-49 75 -128 38 -179 68 -280 103 -351 20 -40 40 -74 45 -74 17 0 7 167 -16
275 -14 60 -23 111 -21 113 2 2 20 -11 39 -30 36 -32 37 -36 61 -183 13 -82
32 -175 41 -205 21 -70 61 -150 76 -150 15 0 4 243 -15 328 -8 34 -11 62 -8
62 4 0 22 -16 41 -35 33 -34 34 -37 47 -170 12 -125 39 -233 71 -291 14 -25
26 115 20 228 l-6 90 27 -26 c25 -25 27 -35 37 -179 8 -107 19 -175 35 -225
13 -40 26 -72 29 -72 14 0 32 200 25 272 l-7 73 35 -40 c34 -40 34 -40 41
-168 7 -123 20 -198 47 -262 12 -29 13 -28 26 50 8 47 12 113 9 160 l-5 80 33
-39 c33 -38 33 -39 38 -166 6 -134 41 -291 61 -271 5 5 12 73 16 152 l6 143
26 -35 c23 -30 27 -49 37 -159 9 -116 35 -230 52 -230 10 0 20 90 20 179 0 74
0 74 19 50 14 -19 20 -50 25 -139 8 -131 42 -274 59 -244 6 10 12 71 15 135
l5 118 98 -122 c116 -145 264 -305 273 -296 6 6 -175 274 -271 403 -21 27 -32
47 -27 45 90 -35 215 -72 221 -66 8 8 -29 42 -87 81 -19 13 -77 40 -129 60
-79 31 -139 71 -126 84 2 2 51 -13 109 -34 59 -20 109 -34 113 -30 22 21 -114
108 -244 155 -52 19 -124 71 -98 71 4 0 57 -18 117 -40 61 -23 113 -38 116
-35 3 3 -12 24 -34 46 -42 44 -108 81 -230 130 -64 25 -111 56 -100 66 1 2 46
-13 100 -32 129 -47 140 -45 87 9 -42 43 -135 94 -236 131 -48 18 -95 50 -95
66 0 5 56 -12 125 -36 68 -24 127 -40 130 -36 3 5 -18 30 -46 55 -52 47 -142
94 -259 136 -60 21 -110 53 -110 71 0 3 46 -8 103 -26 185 -59 205 -56 115 13
-70 53 -103 69 -231 113 -60 20 -118 45 -129 56 -18 18 -6 17 124 -14 195 -45
203 -44 117 21 -72 53 -135 80 -279 117 -78 21 -136 41 -153 56 -36 29 -26 29
108 4 156 -29 175 -31 175 -18 0 7 -28 30 -61 51 -65 42 -168 76 -308 102 -61
11 -95 23 -116 41 l-30 25 60 -7 c33 -3 111 -12 173 -19 62 -7 115 -9 118 -4
3 4 -10 17 -29 28 -33 20 -33 21 -44 122 -7 65 -24 143 -46 211 -33 102 -34
108 -14 94 25 -16 31 -31 82 -207 20 -69 47 -151 59 -182 31 -76 98 -188 111
-185 22 7 -6 192 -51 338 -19 62 -33 114 -31 115 2 2 18 -9 35 -24 29 -24 37
-43 67 -157 51 -192 88 -297 134 -375 38 -63 61 -86 61 -61 0 70 -28 237 -56
333 -19 66 -33 122 -31 125 2 2 29 -16 59 -41 52 -42 55 -47 67 -112 25 -141
63 -271 101 -352 25 -52 44 -81 51 -76 15 9 3 162 -22 279 -10 49 -19 93 -19
98 0 4 17 -6 39 -24 36 -31 39 -37 51 -118 22 -155 49 -270 81 -346 17 -41 34
-75 39 -75 25 0 19 190 -10 340 -4 25 -7 46 -6 47 1 1 18 -11 38 -27 34 -28
37 -36 43 -98 15 -162 28 -238 52 -303 38 -102 48 -80 48 102 l0 150 26 -29
c24 -27 26 -37 32 -168 6 -131 16 -186 50 -279 l14 -40 12 66 c6 36 11 115 11
175 l1 109 33 -38 c33 -37 33 -37 38 -166 6 -136 41 -292 61 -272 5 5 12 75
15 154 l5 145 28 -33 c27 -30 29 -39 38 -176 7 -105 17 -163 34 -214 22 -65
24 -68 31 -40 3 17 9 87 13 157 l6 127 27 -34 c25 -31 27 -44 33 -147 4 -75
13 -137 28 -183 21 -68 22 -69 31 -40 5 17 12 75 15 129 6 95 7 99 23 78 13
-16 18 -49 23 -144 4 -90 12 -141 28 -188 22 -64 23 -64 32 -35 4 17 9 78 10
137 1 60 3 108 4 108 1 0 42 -51 91 -112 111 -139 259 -302 280 -306 14 -4
-81 141 -223 338 -34 47 -64 91 -69 97 -4 7 43 -5 103 -27 61 -21 113 -35 116
-31 16 27 -148 128 -263 162 -37 11 -90 55 -79 65 2 2 51 -13 109 -34 59 -20
109 -34 113 -30 4 3 -11 22 -32 42 -40 38 -143 92 -230 120 -44 15 -91 52 -79
63 1 2 50 -15 109 -37 58 -22 111 -40 116 -40 20 0 11 18 -28 53 -51 46 -108
78 -211 118 -82 31 -120 53 -120 70 0 4 49 -10 110 -31 125 -45 141 -38 63 28
-56 46 -82 60 -198 107 -48 19 -95 45 -105 57 -10 13 -17 24 -16 26 2 1 50
-15 107 -37 146 -54 149 -55 149 -38 0 19 -90 92 -150 121 -25 13 -83 38 -130
56 -47 18 -98 45 -114 61 l-29 28 104 -33 c184 -59 204 -57 127 9 -51 43 -110
71 -247 119 -101 35 -131 50 -131 66 0 4 64 -8 141 -27 78 -19 149 -31 157
-28 11 4 -3 20 -52 55 -69 50 -138 77 -316 125 -54 14 -103 33 -114 45 -26 25
-24 25 140 -5 74 -14 140 -25 145 -25 43 0 -79 88 -159 114 -26 9 -105 29
-176 45 -90 20 -135 35 -149 50 -26 26 -28 26 128 6 66 -8 137 -17 158 -19 65
-7 43 20 -55 69 -75 37 -118 51 -223 70 -71 13 -144 25 -161 25 -18 0 -42 9
-55 21 l-24 20 65 -6 c36 -3 112 -10 169 -16 57 -5 106 -7 110 -4 21 21 -149
100 -265 124 l-99 21 73 -6 c85 -7 92 3 27 42 -78 45 -140 63 -297 85 -84 12
-157 26 -163 32 -7 6 7 8 40 4 214 -25 239 -19 137 32 -60 30 -159 55 -272 67
-73 7 -105 19 -80 28 36 13 584 146 602 146 11 0 46 -16 78 -35 l58 -35 32
-98 c35 -105 67 -171 106 -217 l25 -30 -7 70 c-3 38 -15 98 -26 133 -11 35
-18 65 -16 67 13 13 40 -36 67 -125 18 -58 44 -132 57 -164 24 -60 103 -190
111 -183 10 11 -22 200 -47 277 -15 47 -26 87 -24 89 12 13 35 -34 63 -129 50
-166 80 -239 130 -320 38 -62 47 -71 49 -52 7 44 -19 196 -49 287 -16 51 -29
95 -29 99 0 4 13 -2 28 -13 24 -17 34 -38 57 -123 44 -164 81 -265 125 -339
22 -37 44 -70 49 -73 22 -14 -12 212 -49 327 -16 50 -28 92 -27 93 1 2 25 -14
53 -36 l50 -38 22 -104 c32 -148 57 -225 97 -293 l34 -60 1 90 c0 56 -8 121
-20 174 -11 46 -19 85 -17 87 2 2 17 -9 35 -24 29 -25 33 -36 52 -151 24 -147
41 -208 80 -281 l29 -55 3 55 c3 82 -2 167 -16 243 l-13 68 37 -36 c36 -36 38
-39 44 -131 8 -100 23 -173 52 -239 l17 -40 9 35 c5 19 8 83 6 142 l-3 107 26
-25 c25 -24 27 -32 32 -152 4 -99 10 -142 29 -196 31 -90 39 -74 46 97 l5 128
27 -26 c25 -24 27 -33 34 -140 4 -76 14 -138 29 -187 l23 -73 12 66 c7 36 12
98 12 138 l0 73 24 -29 c20 -24 25 -45 34 -153 9 -116 35 -230 52 -230 10 0
20 90 20 180 l0 75 24 -25 c21 -22 25 -40 34 -140 6 -64 18 -134 28 -159 17
-42 18 -43 26 -20 5 13 10 61 11 106 1 46 5 83 9 83 15 0 28 -41 28 -92 1
-109 37 -274 57 -255 3 4 9 56 12 117 l6 110 58 -73 c93 -114 271 -301 275
-288 4 11 -117 186 -220 319 -26 34 -45 62 -40 62 5 0 48 -13 97 -30 102 -35
95 -33 95 -20 0 31 -97 90 -213 131 -40 14 -74 33 -82 46 -14 20 -9 20 85 -12
55 -18 102 -30 105 -25 11 18 -94 86 -191 123 -55 21 -105 47 -111 56 -9 15 8
11 92 -18 57 -20 107 -32 111 -28 9 8 -27 42 -86 81 -19 13 -78 40 -130 60
-52 21 -99 42 -104 47 -22 21 6 17 83 -11 115 -42 126 -39 65 18 -39 37 -75
57 -150 86 -54 22 -110 50 -124 64 -21 21 -22 24 -5 17 107 -39 216 -72 220
-65 7 11 -66 75 -116 101 -23 11 -83 37 -133 56 -79 30 -132 60 -123 69 1 1
54 -12 117 -31 120 -35 145 -32 94 11 -46 39 -121 75 -227 109 -55 18 -106 41
-115 50 -16 16 -16 17 -1 12 59 -20 253 -57 261 -49 12 12 -104 87 -172 110
-30 10 -98 29 -150 42 -57 13 -103 30 -115 42 -20 20 -20 20 5 15 77 -17 251
-40 257 -34 22 23 -135 94 -272 123 -118 25 -185 49 -185 66 0 5 10 6 23 3 52
-12 273 -32 280 -25 10 9 -50 47 -125 80 -26 11 -107 30 -180 41 -73 12 -146
27 -163 35 -28 14 -26 14 40 9 218 -16 245 -17 245 -8 0 15 -151 84 -215 98
-54 12 -56 13 -22 14 20 1 37 5 37 9 0 12 -86 57 -145 75 -52 16 -137 31 -243
42 -34 4 -64 10 -66 14 -3 4 25 4 62 -1 145 -16 177 -6 102 32 -51 26 -133 47
-239 60 -46 5 -96 17 -110 27 -25 16 -25 16 89 44 195 48 300 67 426 80 155
15 171 8 204 -83 31 -85 73 -166 109 -208 l30 -35 -6 55 c-3 30 -15 85 -27
123 -13 37 -20 67 -17 67 19 -1 40 -32 56 -80 36 -113 79 -207 123 -269 26
-36 48 -59 50 -52 8 23 -19 164 -44 230 -13 35 -22 66 -19 69 11 11 32 -24 49
-78 41 -132 90 -243 137 -307 46 -63 49 -66 49 -38 0 58 -21 161 -51 245 -16
46 -29 86 -29 88 0 2 12 -4 28 -13 23 -14 34 -36 67 -142 47 -152 71 -206 126
-281 l41 -57 -7 85 c-4 51 -20 125 -40 188 -18 56 -31 102 -28 102 2 0 24 -14
48 -30 35 -24 47 -40 55 -73 38 -149 66 -230 98 -287 l37 -65 3 77 c2 67 -11
153 -34 213 -9 21 6 18 39 -9 24 -19 31 -38 53 -147 25 -121 63 -227 90 -250
20 -16 19 104 -1 207 -8 43 -13 79 -12 81 2 1 17 -10 35 -25 29 -25 32 -34 42
-127 11 -89 34 -175 59 -214 17 -27 25 13 25 121 l0 107 22 -20 c18 -17 22
-35 27 -122 6 -101 42 -246 58 -230 13 14 27 137 22 191 -6 57 2 64 34 30 17
-19 21 -41 26 -123 4 -69 13 -119 29 -160 l23 -60 12 55 c7 30 12 83 11 118
-2 34 0 62 4 62 4 0 15 -12 26 -27 14 -21 21 -53 25 -124 4 -62 14 -117 28
-155 l22 -59 10 30 c5 17 10 69 10 117 l2 87 28 -26 c24 -24 27 -34 27 -94 0
-82 36 -213 52 -186 5 10 12 54 16 99 6 71 8 78 18 57 7 -13 16 -67 21 -119 6
-52 18 -113 28 -135 l17 -40 10 30 c5 17 9 62 10 100 l0 70 159 -158 c235
-232 228 -197 -19 95 -40 49 -72 88 -70 88 2 0 39 -11 83 -25 113 -35 130 -33
82 10 -35 30 -185 95 -221 95 -7 0 -21 9 -31 20 -23 25 -17 25 78 -5 86 -28
97 -29 97 -16 0 21 -90 73 -179 102 -53 17 -103 38 -111 46 -13 14 -12 15 10
9 14 -3 60 -17 102 -30 43 -13 80 -21 83 -16 15 24 -137 106 -257 139 -26 8
-53 20 -59 27 -14 18 -18 18 76 -11 44 -14 89 -25 99 -25 18 0 18 2 -5 26 -27
29 -136 83 -219 109 -50 16 -99 45 -75 45 6 0 55 -14 109 -30 55 -17 102 -27
105 -24 10 11 -62 65 -124 94 -33 15 -97 40 -142 54 -46 15 -85 32 -88 37 -9
13 4 11 107 -16 104 -28 121 -30 116 -14 -9 27 -132 88 -240 119 -101 29 -144
47 -135 56 1 2 57 -8 122 -21 147 -30 158 -31 125 -4 -47 39 -116 67 -245 99
-128 31 -172 47 -162 57 3 2 53 -3 111 -11 169 -25 185 -19 89 32 -64 33 -132
53 -267 76 -77 13 -124 31 -113 42 2 2 66 -3 142 -11 80 -8 143 -11 148 -6 12
12 -103 66 -179 85 -33 9 -110 22 -173 30 -62 8 -118 20 -125 26 -8 10 -2 11
29 6 63 -10 265 -20 265 -13 0 12 -121 68 -178 81 -31 8 -49 15 -39 15 51 3
-16 47 -113 75 -30 9 -111 22 -178 30 -68 8 -126 17 -130 20 -3 3 14 4 39 1
130 -13 159 -15 159 -5 0 14 -55 41 -125 61 -33 10 -51 18 -40 19 11 0 110 7
220 15 272 20 304 19 311 -2 14 -43 76 -161 100 -188 l26 -30 -7 58 c-4 32
-15 84 -26 114 -10 31 -17 58 -15 60 13 13 50 -46 77 -122 35 -101 87 -205
125 -250 l26 -30 -7 70 c-3 39 -19 108 -35 154 -17 47 -29 86 -27 87 1 1 12
-5 23 -14 13 -10 34 -57 54 -117 40 -123 90 -229 131 -275 l30 -35 -6 74 c-4
45 -20 113 -41 170 -18 52 -32 96 -31 98 2 1 16 -6 32 -16 26 -15 36 -37 74
-152 46 -141 84 -224 127 -274 l25 -30 -6 78 c-5 65 -36 182 -71 271 -6 15 6
10 49 -20 47 -32 59 -46 67 -79 32 -129 66 -228 96 -282 19 -35 38 -63 41 -63
11 0 -8 169 -27 237 -10 37 -18 69 -17 70 2 1 19 -13 39 -30 36 -30 39 -38 62
-156 22 -112 78 -262 93 -248 10 11 3 185 -10 240 -8 31 -12 57 -8 57 3 0 21
-14 38 -30 30 -27 34 -37 43 -121 10 -86 39 -192 59 -212 14 -14 25 75 18 154
-3 38 -2 69 2 69 4 0 16 -9 26 -20 15 -16 20 -45 26 -133 9 -133 44 -251 62
-207 5 14 12 71 15 128 l5 103 28 -27 c26 -25 29 -34 29 -95 0 -79 12 -149 36
-204 l17 -40 9 35 c5 19 10 72 10 117 l2 83 28 -27 c26 -25 28 -33 28 -103 0
-75 19 -171 42 -213 11 -21 12 -21 20 13 5 19 9 72 9 118 1 81 2 83 20 66 24
-22 27 -32 38 -139 5 -49 17 -108 27 -130 16 -40 17 -40 26 -15 5 14 10 55 11
92 1 37 5 68 8 68 18 0 27 -33 32 -115 6 -86 30 -185 47 -185 10 0 20 63 20
133 l0 59 157 -156 c86 -86 160 -156 165 -156 20 0 2 26 -104 155 -62 75 -121
147 -131 161 l-18 23 48 -14 c26 -8 69 -21 96 -29 38 -12 47 -13 47 -2 0 23
-74 65 -176 102 -94 34 -130 52 -120 61 2 3 41 -7 86 -21 44 -14 88 -26 96
-26 53 0 -59 72 -171 110 -49 17 -96 38 -105 47 -13 14 -13 15 1 10 84 -29
183 -57 187 -53 3 3 -1 13 -9 22 -27 33 -103 74 -195 104 -51 17 -98 37 -104
45 -11 13 28 3 158 -39 16 -5 22 -3 22 7 0 28 -113 90 -237 131 -28 9 -57 24
-65 33 -11 14 -11 16 3 11 64 -24 200 -60 206 -54 20 20 -134 105 -262 146
-38 12 -79 31 -90 43 -18 17 -18 19 -2 14 52 -19 210 -57 215 -53 8 9 -39 44
-93 70 -27 13 -93 36 -145 51 -52 15 -103 35 -113 45 -17 15 -8 15 95 -6 62
-13 124 -24 138 -24 22 0 20 3 -20 30 -59 39 -132 67 -255 94 -147 34 -204 73
-72 51 103 -18 197 -28 197 -21 0 3 -31 21 -69 40 -69 35 -136 54 -266 75 -38
7 -81 21 -95 31 -24 19 -25 20 -3 20 12 0 55 -4 95 -9 140 -18 188 -21 188
-13 0 5 -11 14 -24 20 -20 9 -25 20 -30 74 -4 35 -18 95 -32 133 -29 84 -30
93 -5 71 10 -10 31 -56 46 -104 35 -111 73 -196 115 -252 l33 -45 -7 74 c-4
41 -20 113 -36 160 -16 46 -28 86 -26 88 1 2 14 -6 28 -17 18 -13 33 -43 47
-92 41 -137 73 -215 112 -274 37 -56 39 -57 39 -29 0 53 -20 152 -45 226 -13
40 -23 75 -20 77 2 2 21 -9 42 -24 21 -16 39 -29 41 -30 2 -1 16 -53 33 -115
28 -108 69 -208 93 -228 15 -12 4 150 -13 202 -17 51 -11 61 21 34 24 -19 31
-38 51 -142 17 -81 34 -139 56 -180 l32 -60 -5 115 c-3 63 -8 129 -12 145 l-6
30 31 -30 c28 -27 32 -40 42 -120 6 -50 20 -115 32 -145 19 -51 21 -53 29 -30
5 14 8 64 6 112 l-3 87 22 -21 c17 -16 23 -36 27 -97 7 -88 19 -153 37 -196
l12 -30 7 25 c5 14 8 65 9 114 l1 90 30 -29 c28 -27 30 -34 30 -99 0 -67 18
-158 36 -188 12 -19 21 30 23 122 l1 75 24 -30 c20 -24 24 -44 29 -125 6 -105
33 -194 50 -164 5 9 12 55 15 102 5 82 6 85 22 65 11 -15 19 -49 23 -105 3
-47 14 -104 23 -128 17 -41 18 -42 27 -19 5 13 9 52 10 86 3 92 21 72 30 -33
9 -108 35 -196 49 -170 5 9 12 50 15 90 l6 74 72 -82 c81 -90 203 -201 212
-193 5 6 -88 128 -185 245 -25 28 -40 52 -35 52 6 0 36 -9 68 -20 32 -11 68
-20 79 -20 43 1 -48 65 -136 95 -46 15 -89 32 -95 38 -30 23 -8 22 62 -1 42
-14 79 -22 83 -17 15 15 -65 66 -150 96 -49 18 -91 36 -94 40 -8 14 7 11 86
-16 85 -29 80 -28 80 -14 0 28 -72 71 -189 113 -104 38 -122 65 -21 30 94 -32
114 -31 75 1 -40 34 -86 57 -168 86 -38 13 -73 32 -78 41 -10 18 -18 20 134
-26 26 -8 47 -11 47 -7 0 26 -116 89 -230 126 -49 16 -95 43 -87 51 2 2 43 -8
92 -21 110 -31 129 -31 95 -4 -43 34 -113 67 -196 90 -43 12 -87 30 -97 39
-16 15 -4 14 94 -7 61 -13 114 -21 117 -18 19 18 -114 80 -237 111 -97 24
-141 41 -141 55 0 3 30 0 68 -6 107 -20 162 -25 162 -16 0 20 -131 72 -235 93
-98 19 -163 43 -151 55 2 2 44 -1 92 -7 147 -17 164 -18 164 -10 0 4 -28 21
-62 38 -57 28 -146 49 -283 67 -27 4 -58 14 -70 22 -19 15 -19 15 6 9 14 -3
77 -8 140 -11 l114 -5 -70 35 c-44 22 -102 40 -155 50 l-85 14 68 -5 c37 -3
67 -3 67 0 0 3 -26 19 -57 35 -55 29 -57 30 -26 31 35 0 255 27 289 35 18 4
25 -3 39 -37 9 -24 30 -61 46 -82 l29 -40 0 30 c0 29 -10 78 -24 122 -5 16 -3
22 8 22 9 0 24 -28 41 -82 31 -95 78 -189 107 -215 20 -18 20 -18 13 37 -4 30
-17 87 -30 125 -13 39 -21 72 -19 74 11 12 34 -32 64 -124 18 -55 39 -113 48
-130 19 -38 73 -117 77 -113 1 2 -1 35 -6 74 -8 61 -26 127 -54 197 -4 9 -3
17 1 17 26 -1 47 -38 75 -131 33 -108 72 -196 108 -239 19 -23 20 -23 21 -5 0
40 -21 150 -41 208 -11 33 -18 62 -15 64 3 3 20 -7 39 -21 31 -24 38 -38 57
-117 12 -49 39 -122 59 -162 l36 -72 3 47 c2 26 -6 83 -16 127 -11 45 -16 81
-12 81 3 0 17 -11 29 -24 17 -18 29 -53 43 -123 10 -54 32 -125 48 -158 l30
-60 -4 110 c-2 61 -7 119 -11 130 -6 16 -2 14 23 -9 25 -23 31 -38 37 -90 8
-81 45 -202 56 -184 5 7 9 51 9 97 0 81 1 84 19 67 14 -12 19 -37 24 -104 4
-48 14 -109 23 -136 16 -47 18 -48 27 -25 5 13 10 59 10 102 l1 78 20 -21 c16
-16 24 -43 32 -118 6 -53 17 -110 24 -127 l13 -30 7 25 c5 14 9 57 9 95 l2 70
24 -28 c21 -24 25 -38 25 -96 0 -78 27 -183 41 -160 5 8 9 50 9 93 l0 79 25
-23 c21 -20 25 -33 25 -80 0 -72 29 -175 41 -145 4 11 8 46 8 79 1 51 3 57 16
46 10 -9 15 -31 15 -73 0 -61 26 -177 40 -177 9 0 20 62 20 118 l0 44 123
-128 c67 -70 128 -125 135 -123 7 2 -32 60 -94 138 -81 103 -100 132 -82 127
12 -3 44 -12 70 -20 110 -34 37 38 -83 81 -119 43 -137 67 -25 32 38 -11 70
-18 72 -16 12 11 -62 57 -133 82 -43 16 -82 32 -87 36 -21 19 4 17 69 -5 39
-13 72 -22 75 -19 12 12 -72 66 -147 94 -106 40 -133 68 -32 34 84 -29 79 -28
79 -15 0 16 -83 65 -153 90 -57 21 -102 48 -94 57 2 1 37 -8 78 -22 41 -14 81
-24 89 -23 25 5 -69 66 -144 93 -101 37 -139 55 -133 62 3 3 43 -4 87 -17 45
-12 84 -19 87 -16 13 13 -91 69 -178 96 -54 17 -101 35 -104 40 -8 13 -13 13
100 -10 54 -11 100 -18 103 -16 8 8 -89 65 -137 80 -25 9 -78 22 -118 31 -39
9 -77 23 -84 31 -6 8 -10 14 -8 14 2 0 42 -7 89 -15 47 -8 94 -15 105 -15 18
0 18 2 -5 20 -37 29 -117 57 -217 75 -48 9 -95 23 -103 31 -18 18 -8 18 113 3
48 -6 93 -9 100 -6 6 2 -16 18 -50 36 -46 23 -92 35 -170 47 -180 27 -211 49
-45 33 56 -6 108 -9 115 -6 20 7 -89 57 -156 71 -59 13 -60 14 -22 15 l40 2
-48 25 c-26 13 -73 30 -105 38 -63 14 -63 15 63 41 77 16 251 60 277 70 8 3
20 -11 31 -38 9 -24 31 -59 48 -78 l30 -34 -6 50 c-4 28 -13 65 -21 84 -8 19
-12 36 -9 39 11 12 34 -26 64 -108 29 -78 93 -190 107 -190 12 0 -6 109 -27
165 -12 31 -19 58 -17 60 10 11 27 -18 52 -90 37 -106 70 -173 106 -215 l29
-35 -5 40 c-9 69 -26 138 -46 184 -21 49 -19 58 10 40 13 -8 33 -52 56 -124
32 -96 98 -225 116 -225 13 0 -10 139 -33 203 -13 37 -21 67 -18 67 4 0 22
-11 41 -25 30 -22 38 -37 57 -113 22 -82 67 -187 85 -198 14 -9 9 95 -8 158
-8 33 -14 62 -12 63 2 2 13 -5 26 -16 18 -14 29 -43 47 -123 21 -95 56 -186
72 -186 8 0 -3 190 -12 214 -7 17 -5 16 23 -4 24 -18 32 -32 32 -55 0 -52 21
-147 40 -185 l18 -35 7 48 c4 27 5 68 1 93 -6 48 4 56 28 22 10 -14 16 -44 16
-82 0 -60 26 -176 40 -176 9 0 20 76 20 138 l0 45 24 -22 c20 -19 24 -34 28
-104 5 -90 26 -154 39 -120 4 10 8 50 9 88 l1 70 24 -28 c21 -24 25 -38 25
-91 0 -71 27 -166 41 -145 5 8 9 44 9 82 0 37 4 67 9 67 23 0 41 -47 41 -103
0 -31 7 -74 16 -95 16 -36 17 -37 24 -12 5 14 8 45 9 69 1 37 3 42 16 31 10
-8 15 -30 15 -64 0 -29 7 -77 17 -107 15 -48 17 -51 24 -29 4 14 7 49 8 79 l1
53 126 -121 c69 -67 128 -120 131 -117 3 3 -43 62 -102 132 -60 70 -101 125
-93 122 41 -16 139 -40 144 -35 9 9 -79 56 -147 79 -35 11 -71 27 -79 34 -19
19 -7 18 69 -6 72 -22 88 -18 51 10 -26 20 -151 70 -174 70 -8 0 -19 7 -26 15
-16 19 -8 19 68 -5 77 -24 88 -25 71 -4 -17 20 -90 57 -159 79 -30 9 -62 24
-70 31 -12 12 -6 12 35 -1 69 -21 105 -29 105 -21 0 14 -96 66 -159 87 -63 21
-96 38 -88 46 3 3 91 -21 155 -42 6 -3 12 0 12 6 0 18 -90 67 -175 94 -113 37
-133 60 -29 34 42 -11 84 -18 93 -17 29 7 -89 66 -176 89 -116 31 -126 50 -15
27 122 -25 140 -20 73 19 -32 19 -91 39 -150 53 -101 22 -147 37 -138 46 4 4
31 1 170 -21 15 -3 27 0 27 5 0 18 -108 60 -195 75 -49 9 -103 23 -120 30
l-30 14 30 0 c17 1 68 -4 114 -9 119 -13 122 -1 12 40 -30 12 -108 29 -173 39
-65 10 -122 22 -126 26 -7 7 148 -2 201 -11 76 -15 -24 46 -108 65 -22 5 -34
9 -27 10 26 2 10 19 -39 40 -28 12 -100 29 -162 37 -61 8 -113 17 -116 19 -2
3 31 3 75 0 l79 -6 -32 18 c-18 9 -33 19 -33 23 0 3 39 25 86 48 l87 43 38
-40 c36 -37 79 -68 79 -57 0 11 -25 62 -43 88 -10 16 -15 32 -12 38 3 6 32
-25 64 -68 52 -70 136 -151 146 -140 7 7 -44 109 -75 148 -17 21 -30 41 -30
44 0 18 34 -16 75 -74 25 -36 62 -82 81 -102 35 -37 94 -84 94 -75 0 17 -46
108 -74 147 -49 68 -49 70 -28 70 12 0 40 -32 84 -97 63 -92 158 -190 158
-161 0 23 -49 119 -85 168 -19 26 -35 50 -35 53 0 3 17 0 38 -7 31 -11 46 -27
87 -94 48 -78 110 -152 126 -152 12 0 -26 103 -55 148 -33 53 -33 56 3 37 21
-10 43 -40 71 -92 36 -69 98 -153 113 -153 10 0 -24 102 -49 153 -27 51 -26
52 9 36 17 -8 33 -32 51 -78 15 -36 40 -82 57 -101 l31 -35 -6 48 c-3 26 -13
61 -22 78 -17 34 -15 43 9 33 9 -3 24 -27 33 -52 25 -70 52 -124 75 -152 l21
-25 -7 54 c-3 30 -12 69 -20 88 -11 26 -11 33 -1 33 20 0 41 -30 65 -95 12
-34 33 -74 46 -90 l24 -30 1 26 c0 14 -7 48 -15 74 -8 27 -13 51 -11 53 12 12
46 -29 59 -72 16 -50 74 -152 82 -144 5 5 -19 115 -31 143 -8 19 -7 19 16 4
14 -9 34 -41 46 -72 21 -54 53 -106 65 -107 6 0 -6 77 -18 115 -5 17 -4 18 9
7 9 -7 25 -39 37 -72 12 -33 33 -73 46 -88 29 -32 31 -20 11 56 -7 29 -11 52
-8 52 2 0 30 -15 61 -34 76 -46 202 -108 208 -103 4 5 -119 93 -192 138 -38
23 -39 24 -15 27 14 1 45 5 70 8 l45 7 -30 13 c-16 7 -59 13 -95 14 -121 1
-155 27 -42 32 62 3 65 4 40 15 -15 7 -67 16 -115 21 l-88 9 67 2 c127 2 76
39 -67 48 -108 6 -125 16 -40 23 68 5 69 6 40 19 -16 7 -61 15 -100 18 -115 7
-130 17 -35 23 l85 5 -40 19 c-27 13 -72 20 -138 24 -119 6 -139 22 -28 22 45
0 81 4 81 8 0 17 -80 32 -174 32 -57 0 -96 4 -96 10 0 6 15 10 33 10 54 0 137
12 137 20 0 20 -100 31 -209 25 -83 -6 -112 -5 -107 4 4 6 17 11 28 11 46 0
149 23 141 31 -16 16 -130 22 -212 10 -122 -18 -137 1 -19 24 106 20 120 25
92 36 -32 13 -158 10 -240 -6 -43 -8 -82 -11 -86 -7 -5 5 20 14 54 20 159 30
175 51 38 52 -49 0 -70 3 -61 9 24 15 -31 24 -110 19 -38 -3 -68 -3 -65 -1 3
3 48 29 102 59 l97 53 38 -33 c42 -39 78 -60 86 -52 7 7 -21 52 -55 89 -16 17
-21 27 -12 27 7 0 45 -31 84 -69 39 -37 91 -78 114 -90 l44 -22 -19 32 c-10
18 -42 58 -72 91 -78 85 -38 71 49 -18 69 -69 170 -144 170 -126 0 16 -60 101
-102 146 -38 39 -42 46 -24 46 14 0 46 -27 90 -75 59 -66 156 -145 178 -145
15 0 -48 95 -101 153 l-56 60 34 -6 c18 -4 37 -7 41 -7 4 0 33 -32 65 -71 52
-64 132 -135 142 -125 7 7 -27 67 -68 124 -32 42 -36 52 -22 52 26 0 33 -7 92
-87 29 -40 71 -87 93 -105 39 -31 40 -31 33 -7 -11 36 -40 89 -69 128 -14 19
-24 36 -22 39 14 13 51 -17 82 -66 37 -58 92 -122 106 -122 9 0 -17 75 -42
117 -14 24 -16 33 -6 33 18 0 39 -26 69 -85 14 -27 42 -66 62 -85 35 -33 37
-34 30 -10 -4 14 -20 53 -35 88 -16 34 -27 62 -25 62 24 0 56 -32 83 -84 18
-34 46 -76 63 -92 l31 -29 -7 30 c-6 24 -30 83 -53 128 -2 4 7 3 20 -3 12 -6
37 -37 55 -68 17 -31 46 -73 63 -92 l31 -35 -7 35 c-3 19 -15 52 -26 73 -11
22 -17 41 -15 43 12 12 39 -13 65 -59 17 -29 42 -63 57 -77 l27 -25 -8 30 c-4
17 -13 43 -21 58 -8 16 -13 30 -11 32 8 8 26 -13 52 -62 16 -28 42 -64 58 -80
l30 -28 -7 25 c-4 14 -15 44 -26 68 -10 23 -16 42 -13 42 2 0 30 -10 62 -23
76 -31 203 -69 209 -63 3 2 -50 30 -117 62 -126 60 -130 66 -53 79 24 4 45 10
48 15 9 15 -68 21 -124 10 -66 -12 -91 -13 -91 -1 0 5 21 12 46 16 65 9 79 15
62 26 -18 12 -93 11 -147 -2 -30 -7 -47 -7 -55 1 -7 7 -5 10 7 10 38 0 118 23
110 31 -11 11 -68 13 -163 6 l-75 -6 70 18 c39 10 63 21 55 24 -40 15 -75 16
-141 6 -51 -8 -74 -8 -82 0 -8 8 -5 11 11 11 35 0 122 21 122 30 0 15 -81 20
-150 9 -103 -16 -129 -7 -42 15 39 10 72 23 72 28 0 10 -93 7 -220 -7 -38 -4
-31 0 38 22 45 14 82 30 82 34 0 16 -116 9 -194 -11 -108 -29 -127 -20 -33 14
43 16 80 33 83 37 11 19 -108 8 -183 -16 -90 -29 -155 -34 -89 -7 21 9 64 28
95 44 l56 28 -75 -4 c-55 -2 -96 -12 -154 -35 -113 -46 -129 -34 -18 14 51 21
92 43 92 48 0 10 -103 3 -135 -9 -12 -5 -16 -4 -11 4 4 6 -4 12 -21 14 -24 2
-3 17 127 92 85 49 162 94 172 100 12 7 24 3 52 -22 20 -17 50 -39 67 -47 30
-16 30 -16 19 5 -6 12 -28 39 -47 61 -30 33 -33 39 -16 39 11 0 38 -21 61 -49
38 -45 124 -111 144 -111 14 0 -21 54 -70 110 -67 77 -28 59 47 -21 56 -60
132 -119 154 -119 12 0 -37 73 -85 126 -41 44 -46 54 -30 54 12 0 46 -28 86
-72 61 -66 137 -128 158 -128 14 0 -42 82 -90 133 l-46 47 36 0 c34 0 42 -6
92 -67 53 -67 113 -120 123 -110 7 7 -14 44 -59 105 l-39 53 28 -7 c15 -4 28
-7 29 -8 25 -45 104 -142 134 -166 22 -17 40 -30 40 -27 0 14 -43 99 -70 135
-16 23 -25 42 -19 42 24 0 48 -22 74 -67 28 -49 83 -113 97 -113 9 0 -25 90
-48 125 -14 22 -14 23 3 19 10 -3 36 -36 57 -74 22 -38 50 -79 63 -92 22 -20
23 -20 23 -2 0 10 -11 43 -25 73 -14 30 -24 56 -22 58 12 12 41 -16 68 -67 17
-32 44 -71 61 -86 l30 -29 -7 25 c-4 14 -16 45 -26 69 -11 24 -18 46 -16 48
12 11 37 -14 56 -55 23 -49 79 -118 87 -109 3 3 -6 33 -19 66 -14 34 -22 61
-18 61 15 0 39 -27 63 -70 30 -52 68 -91 68 -69 0 8 -9 33 -20 57 -27 59 -7
52 29 -11 16 -29 42 -64 57 -77 l26 -25 -7 25 c-4 14 -14 40 -21 59 -8 18 -14
35 -14 37 0 3 17 -3 38 -12 34 -15 201 -74 209 -74 2 0 3 4 3 9 0 4 -51 32
-112 61 l-113 53 52 11 c28 6 55 14 58 18 14 14 -63 19 -120 9 -35 -7 -63 -7
-68 -2 -5 5 12 12 42 16 28 4 53 11 56 16 11 16 -47 22 -113 11 -37 -6 -70 -8
-75 -3 -5 5 17 12 47 15 31 4 58 11 61 16 13 21 -138 23 -192 3 -7 -3 -13 -1
-13 5 0 6 23 13 50 17 28 4 50 11 50 15 0 17 -70 22 -132 11 -41 -7 -66 -7
-72 -1 -7 7 -4 10 7 10 40 0 117 22 111 32 -5 7 -45 9 -120 4 -63 -3 -114 -4
-114 -2 0 3 27 10 60 17 72 14 84 26 35 35 -31 6 -89 -2 -185 -23 -50 -11 -5
14 58 32 35 10 65 22 68 27 10 16 -122 8 -186 -12 -71 -22 -90 -24 -90 -12 0
4 32 18 70 31 131 45 60 58 -86 16 -123 -36 -149 -28 -46 14 45 19 82 38 82
43 0 20 -100 1 -201 -39 -37 -14 -73 -23 -80 -20 -9 3 -5 8 11 15 14 6 52 23
85 38 56 26 58 28 31 32 -26 3 -74 -5 -132 -24 -12 -3 -10 1 6 11 24 16 24 16
-32 12 -32 -2 -57 -3 -55 -1 1 1 43 29 92 61 l90 59 43 -12 c48 -14 51 -10 20
23 -33 36 -16 37 49 4 33 -16 77 -33 98 -37 l39 -7 -39 34 c-21 19 -54 43 -73
55 -19 12 -31 24 -25 27 5 3 40 -13 78 -35 72 -41 135 -68 163 -68 26 0 -45
66 -105 97 -29 15 -53 31 -53 36 0 19 50 2 124 -43 84 -50 109 -62 161 -74
l30 -8 -25 28 c-14 15 -58 48 -98 74 l-73 47 38 6 c33 6 45 1 95 -33 60 -43
159 -92 167 -84 8 7 -56 68 -99 95 -46 28 -50 39 -15 39 15 0 51 -20 88 -49
63 -49 117 -81 137 -81 18 0 -44 74 -85 101 -41 29 -44 39 -9 39 16 0 43 -17
77 -49 52 -48 117 -89 117 -73 0 4 -23 34 -51 65 -39 44 -46 57 -32 57 10 0
37 -18 58 -41 38 -39 117 -99 130 -99 11 0 -17 43 -57 86 l-41 44 28 0 c21 0
45 -16 91 -60 67 -64 99 -79 69 -32 -10 15 -28 38 -41 53 -56 60 5 42 71 -21
52 -49 95 -77 95 -62 0 5 -18 30 -40 55 -22 25 -40 48 -40 52 0 16 50 -12 98
-56 75 -69 99 -66 41 4 -47 57 -26 57 34 0 90 -85 129 -94 61 -14 -20 23 -35
43 -33 45 2 2 45 -1 94 -6 50 -5 110 -8 135 -6 39 3 32 5 -55 21 -55 10 -113
21 -130 26 l-30 7 53 27 c28 15 52 30 52 33 0 11 -77 -10 -123 -33 -71 -35
-95 -24 -27 12 50 27 53 30 29 33 -15 2 -57 -11 -94 -27 -75 -34 -75 -34 -75
-23 0 5 23 19 50 32 28 13 50 27 50 31 0 13 -71 -3 -128 -28 -74 -33 -98 -28
-32 7 l55 29 -35 0 c-19 1 -59 -10 -88 -24 -81 -37 -110 -31 -37 8 60 32 60
32 27 35 -20 2 -54 -7 -90 -23 -117 -55 -153 -53 -52 3 33 18 60 35 60 39 0
12 -78 -11 -142 -43 -93 -47 -115 -43 -37 7 87 56 92 62 44 53 -45 -8 -75 -21
-157 -71 -82 -50 -91 -36 -13 21 36 27 64 50 62 52 -10 11 -92 -24 -159 -68
-42 -27 -82 -48 -89 -46 -6 2 18 28 55 58 36 29 66 57 66 62 0 18 -106 -34
-176 -87 -81 -60 -113 -72 -41 -14 23 18 79 67 124 107 50 44 87 70 95 66 7
-5 9 -2 5 8 -9 26 2 27 46 7 64 -29 77 -23 35 16 -21 20 -38 37 -38 40 0 3 28
-11 63 -30 35 -19 72 -35 82 -35 16 0 16 3 -6 26 -13 14 -38 34 -56 45 -32 20
-43 39 -23 39 5 0 32 -16 59 -35 42 -30 109 -65 126 -65 17 0 -23 44 -72 80
-56 40 -56 40 -24 40 22 0 47 -12 81 -39 90 -71 129 -68 54 3 -60 58 -34 64
34 7 95 -79 130 -80 57 -2 -65 70 -31 69 42 0 30 -28 57 -48 60 -45 4 3 -8 26
-26 51 -42 58 -20 58 31 0 72 -82 106 -83 43 -1 -48 64 -20 59 43 -6 57 -58
80 -59 39 -1 -41 57 -13 52 44 -7 57 -60 75 -60 35 0 -35 53 -14 52 41 -2 50
-49 63 -47 27 5 -13 20 -22 37 -19 37 2 0 28 -23 56 -51 56 -56 77 -59 35 -5
-14 19 -26 37 -26 40 0 4 55 1 153 -8 68 -7 29 11 -53 24 -44 7 -80 16 -80 19
0 4 17 17 38 29 31 18 34 22 14 22 -12 0 -45 -11 -72 -25 -27 -14 -51 -21 -54
-17 -3 5 12 17 32 27 27 14 32 20 20 22 -10 3 -38 -6 -63 -18 -53 -27 -71 -21
-20 7 19 10 35 22 35 25 0 11 -61 -6 -107 -30 -24 -12 -43 -18 -43 -13 0 5 17
17 38 27 32 16 34 19 15 23 -12 2 -45 -9 -73 -23 -67 -34 -76 -25 -13 11 69
41 30 44 -54 5 -36 -17 -68 -29 -70 -27 -3 3 14 17 37 32 62 41 28 42 -51 1
-38 -19 -69 -31 -69 -26 0 5 3 9 8 9 4 0 25 16 47 35 l40 35 -30 -6 c-16 -3
-56 -23 -88 -45 -76 -51 -94 -50 -37 2 44 39 44 40 15 34 -16 -4 -53 -24 -82
-46 -71 -53 -83 -49 -22 8 27 25 47 48 45 50 -2 2 -20 -3 -40 -11 -41 -17 -40
-15 8 49 17 22 32 42 33 44 1 2 17 -3 35 -12 41 -20 45 -15 19 21 -29 42 -26
51 7 20 25 -24 64 -48 76 -48 14 0 3 21 -35 64 -55 62 -41 72 19 14 42 -41 81
-68 96 -68 12 0 -47 80 -70 95 -13 8 -24 20 -24 25 0 24 37 6 86 -40 59 -56
87 -66 59 -22 -10 15 -29 39 -43 55 -20 21 -22 27 -9 27 9 0 30 -18 48 -40 32
-40 77 -75 85 -67 2 2 -14 29 -36 60 -25 37 -34 57 -25 57 7 0 28 -20 46 -44
28 -40 59 -66 59 -49 0 3 -11 26 -25 50 -30 50 -17 59 14 10 22 -36 71 -85 71
-71 0 5 -11 28 -25 52 -29 52 -8 60 24 9 21 -34 61 -76 61 -63 0 4 -9 25 -21
47 -11 23 -17 44 -14 47 4 4 10 0 15 -8 20 -36 72 -101 76 -97 4 4 -13 49 -34
90 -2 4 0 7 5 7 5 0 24 -21 42 -46 36 -51 52 -54 26 -4 -25 49 -12 45 25 -8
35 -50 52 -45 25 8 l-16 31 73 -6 c81 -7 77 5 -9 25 -29 6 -53 14 -53 16 0 3
12 16 28 29 37 33 8 33 -41 -1 -48 -32 -59 -26 -17 10 26 21 28 26 13 26 -11
0 -34 -11 -53 -25 -18 -14 -36 -23 -38 -20 -5 5 39 44 51 45 4 0 7 4 7 9 0 12
-39 2 -70 -19 -46 -31 -55 -32 -20 -1 28 26 31 31 14 31 -10 0 -36 -11 -56
-25 -53 -36 -60 -30 -13 10 32 28 36 35 20 35 -11 0 -40 -13 -65 -30 -54 -36
-63 -32 -18 9 21 19 27 31 18 31 -14 0 -34 -11 -100 -57 -14 -9 -5 5 20 31 39
42 42 47 20 41 -30 -9 -68 -35 -94 -64 -11 -12 -24 -21 -29 -21 -6 0 0 12 14
28 14 15 31 35 38 44 26 35 -32 5 -77 -39 -54 -55 -67 -49 -18 8 39 46 41 57
6 39 -30 -16 -32 -10 -9 27 20 31 21 32 45 16 33 -21 39 -12 14 20 -33 42 -23
44 19 3 51 -49 76 -44 31 7 -17 20 -28 37 -22 37 5 0 17 -11 26 -25 18 -27 76
-62 76 -45 0 5 -16 28 -36 50 -49 54 -33 51 27 -5 26 -25 53 -45 59 -45 12 0
-13 43 -49 83 -20 21 -21 27 -8 27 9 0 36 -21 61 -47 50 -53 60 -47 21 12 -15
20 -23 40 -20 44 4 3 11 -2 16 -11 17 -30 60 -78 71 -78 5 0 -2 21 -16 47 -35
61 -26 66 14 9 39 -57 58 -60 30 -5 -12 23 -19 43 -16 46 2 3 14 -13 25 -34
18 -36 51 -74 51 -59 0 4 -9 25 -20 46 -27 52 -8 52 21 0 13 -22 26 -40 31
-40 11 0 10 7 -8 41 -25 49 -8 45 21 -5 33 -57 53 -61 25 -6 -11 22 -16 40
-10 40 5 0 16 -13 25 -29 16 -31 43 -56 33 -30 -19 46 -17 50 7 16 27 -39 45
-45 26 -9 -18 34 -13 37 41 35 l53 -3 -53 17 -53 16 22 23 c27 29 11 32 -24 4
-35 -28 -45 -25 -17 5 28 30 13 33 -23 5 -36 -29 -48 -24 -12 5 37 31 11 35
-28 5 -33 -26 -49 -25 -18 1 33 28 17 37 -19 11 -39 -29 -49 -28 -20 3 32 34
7 33 -39 -2 l-36 -26 29 31 c38 41 12 44 -35 5 -32 -27 -32 -17 -1 20 30 34
-11 18 -52 -20 -39 -38 -41 -28 -3 14 39 44 7 36 -38 -9 -50 -50 -58 -50 -20
2 26 35 26 52 1 31 -8 -7 -19 -10 -24 -7 -5 3 -24 -1 -41 -10 -18 -9 -34 -14
-36 -13 -2 2 15 36 37 76 l39 72 37 -19 c45 -24 56 -16 20 15 -39 33 -35 43 5
13 17 -14 43 -29 57 -33 23 -7 24 -7 10 11 -8 10 -26 29 -40 42 -28 26 -11 20
35 -13 70 -51 88 -36 23 19 -54 47 -44 56 13 12 80 -61 109 -55 39 8 -22 20
-40 38 -40 41 0 11 25 4 44 -14 35 -31 76 -54 76 -42 0 5 -16 26 -35 46 -49
49 -22 44 32 -6 54 -50 68 -44 25 10 -46 57 -39 62 13 11 47 -46 61 -43 24 4
-12 15 -19 29 -16 32 3 3 17 -10 32 -29 14 -20 33 -38 41 -41 12 -5 12 -2 -1
24 -8 16 -19 32 -25 35 -5 3 -10 11 -10 18 0 6 20 -9 45 -33 48 -47 58 -47 24
2 -32 45 -17 43 20 -3 39 -48 52 -45 23 6 -27 45 -20 45 20 0 37 -43 49 -39
18 7 -22 33 -22 33 15 -5 43 -44 57 -42 25 2 l-21 31 58 1 c42 0 52 3 38 9
-11 5 -35 9 -52 9 -37 1 -40 7 -17 39 21 30 3 28 -26 -3 -13 -14 -28 -25 -33
-25 -6 0 0 11 13 25 13 14 18 25 11 25 -6 0 -23 -11 -37 -25 -32 -33 -45 -33
-14 0 36 38 17 40 -26 3 -36 -31 -37 -32 -20 -5 24 35 4 35 -29 0 -14 -15 -25
-24 -25 -19 0 6 10 20 22 33 34 36 0 28 -39 -9 -18 -18 -33 -27 -33 -21 0 7 4
15 10 18 5 3 15 15 21 26 9 19 9 19 -9 10 -11 -6 -29 -22 -40 -36 -28 -35 -38
-31 -13 4 24 33 26 41 11 41 -6 0 -25 -20 -42 -45 -37 -53 -48 -53 -17 -1 30
52 5 45 -33 -9 -38 -53 -45 -53 -19 1 35 72 4 57 -39 -19 -34 -59 -40 -57 -10
3 22 43 18 50 -12 23 -20 -18 -31 -14 -22 10 3 9 20 19 37 23 52 11 55 19 7
25 l-45 5 40 8 c79 14 87 17 81 24 -4 4 -31 9 -59 13 l-52 6 56 2 c31 0 64 7
75 16 18 14 18 14 -11 16 -16 1 -45 1 -62 0 -18 -2 -33 2 -33 7 0 5 29 12 65
14 94 6 110 28 21 28 -50 0 -67 3 -64 13 3 7 26 13 59 15 70 3 93 12 59 22
-14 5 -40 8 -58 9 -18 1 -31 5 -27 10 3 6 28 7 55 4 27 -3 57 -2 67 2 17 7 17
8 -2 15 -11 5 -37 9 -58 9 -24 1 -36 5 -32 12 5 6 27 8 61 3 64 -8 77 12 14
22 -22 4 -40 11 -40 16 0 6 8 7 17 4 9 -4 37 -10 62 -13 53 -7 50 13 -4 23
-61 11 -49 24 17 19 60 -4 61 -4 26 8 -59 20 -56 28 8 21 65 -7 68 -2 8 21
l-39 15 54 -6 c38 -4 52 -3 47 5 -4 6 -16 11 -26 11 -10 0 -22 5 -25 10 -6 10
13 8 68 -7 9 -2 17 0 17 6 0 5 -13 12 -30 16 -16 4 -30 9 -30 12 0 3 17 21 38
38 48 43 39 52 -16 14 -23 -16 -45 -29 -47 -29 -2 0 -5 15 -7 33 -4 30 -4 31
-11 7z m-412 -934 c-37 -48 -42 -46 -9 4 15 22 29 38 31 36 3 -3 -7 -21 -22
-40z m-4641 -2580 c9 -24 32 -65 51 -92 31 -43 35 -46 35 -24 -1 26 -11 83
-25 133 -6 24 -5 28 9 25 11 -2 28 -36 51 -101 32 -92 48 -126 90 -190 l17
-27 -35 15 c-48 20 -113 34 -240 50 -64 9 -117 21 -130 31 -21 15 -20 16 28
10 101 -11 255 -19 255 -12 0 4 -29 20 -64 35 -62 28 -113 42 -226 61 -51 9
-49 9 23 4 42 -3 77 -1 77 3 0 23 -166 73 -314 95 -11 1 276 24 345 26 34 2
37 -1 53 -42z m-296 -73 c-10 -2 -26 -2 -35 0 -10 3 -2 5 17 5 19 0 27 -2 18
-5z m-2852 -374 c51 -31 52 -33 79 -123 30 -104 92 -237 130 -281 25 -30 25
-30 21 -5 -3 14 -8 54 -11 89 -4 36 -17 97 -30 138 -20 64 -21 71 -6 63 29
-15 38 -32 65 -128 40 -140 82 -249 121 -315 19 -32 35 -60 35 -62 0 -2 -19 5
-42 15 -47 20 -207 55 -303 66 -62 7 -115 27 -115 44 0 5 6 7 13 5 30 -11 322
-34 330 -26 9 9 -115 81 -173 100 -19 6 -71 17 -115 26 l-80 15 78 -6 c52 -4
77 -2 77 5 0 19 -154 89 -231 105 -41 8 -117 20 -169 27 -115 13 -158 33 -55
24 39 -3 94 -8 123 -11 65 -8 68 6 10 40 -56 32 -131 53 -248 69 l-95 12 240
63 c132 35 251 67 265 72 14 5 27 9 30 9 2 1 27 -13 56 -30z m-726 -183 c30
-20 39 -36 57 -99 37 -125 61 -181 109 -253 l45 -69 -7 75 c-5 63 -24 149 -51
234 -6 17 -5 18 19 2 19 -13 32 -40 58 -129 47 -163 85 -255 135 -333 24 -38
42 -70 41 -72 -2 -2 -32 13 -67 32 -62 33 -180 64 -314 81 -50 6 -95 23 -95
35 0 3 48 0 108 -6 125 -15 202 -17 202 -6 0 17 -144 84 -222 102 -73 18 -77
19 -30 15 69 -6 65 9 -14 52 -66 36 -145 57 -279 73 -49 6 -94 16 -100 22 -7
8 -5 9 6 5 32 -11 199 -20 199 -10 0 5 -29 24 -65 42 -50 24 -94 36 -180 49
-63 9 -115 19 -115 23 0 6 107 39 415 128 55 16 102 30 105 30 3 1 21 -10 40
-23z m-2357 -2223 c-7 -2 -21 -2 -30 0 -10 3 -4 5 12 5 17 0 24 -2 18 -5z"/>
</g>
</svg>
