<?xml version="1.0" encoding="utf-8"?>
<!-- Svg Vector Icons : http://www.onlinewebfonts.com/icon -->
<!DOCTYPE svg PUBLIC "-//W3C//DTD SVG 1.1//EN" "http://www.w3.org/Graphics/SVG/1.1/DTD/svg11.dtd">
<svg version="1.1" xmlns="http://www.w3.org/2000/svg" xmlns:xlink="http://www.w3.org/1999/xlink" x="0px" y="0px" viewBox="0 0 1000 1000" enable-background="new 0 0 1000 1000" xml:space="preserve">
<metadata> Svg Vector Icons : http://www.onlinewebfonts.com/icon </metadata>
<g><g transform="translate(0.000000,512.000000) scale(0.100000,-0.100000)"><path d="M4909.3,4937.5c38.4-82.5,38.4-84.4,5.8-176.5c-28.8-74.8-36.4-180.3-46-516c-15.4-500.6-19.2-516-230.2-748.1c-76.7-82.5-165-189.9-197.6-235.9c-63.3-92.1-71-90.2-130.4,24.9c-24.9,46-34.5,57.5-26.9,28.8c5.8-26.9,26.9-80.6,48-120.8c34.5-67.1,36.4-92.1,17.3-335.7c-28.8-360.6-51.8-498.7-103.6-610l-44.1-94l-32.6,143.9c-42.2,188-92.1,287.7-211,418.2c-184.1,205.3-172.6,166.9-107.4,343.4c53.7,149.6,90.2,360.6,99.7,581.2l5.8,105.5l153.5,78.6c163,84.4,209.1,140,259,318.4c11.5,40.3,59.5,130.4,107.4,199.5c103.6,151.5,103.6,182.2,0,42.2c-63.3-82.5-76.7-92.1-92.1-65.2c-21.1,36.4,13.4,358.7,42.2,416.3c11.5,19.2,19.2,46,17.3,59.5c0,26.9-23-15.4-55.6-107.4l-21.1-57.5l-36.4,57.5c-46,67.1-48,55.6-9.6-36.4c19.2-47.9,28.8-136.2,28.8-268.5c0-207.2-17.3-291.6-82.5-385.6c-44.1-61.4-251.3-203.3-301.2-203.3c-19.2,0-51.8,42.2-84.4,111.3l-51.8,109.3l40.3,113.2c49.9,147.7,48,180.3-7.7,61.4l-42.2-95.9l-61.4,107.4c-32.6,59.5-69.1,113.2-80.6,120.8c-34.5,21.1-19.2-17.3,28.8-76.7c26.9-30.7,80.6-157.3,118.9-278.1c59.5-191.8,69-243.6,67.1-402.8c0-130.4-13.4-220.6-42.2-316.5c-48-153.5-107.4-278.1-132.4-278.1c-26.9,0-120.8,117-149.6,189.9c-44.1,103.6-26.9,385.6,24.9,456.5c28.8,38.4,38.4,72.9,30.7,117c-7.7,59.5-11.5,57.5-55.6-67.1c-26.9-71-57.5-180.3-69-239.8c-11.5-61.4-26.9-111.3-34.5-111.3c-23,0-55.6,134.3-55.6,230.2c0,47.9,13.4,153.4,28.8,235.9c32.6,174.6,36.4,351,7.7,471.9c-15.3,72.9-13.4,92.1,17.3,134.3c61.4,82.5,94,161.1,109.3,251.3c19.2,117,59.5,209.1,120.8,278.1l51.8,57.5l-53.7-47.9c-74.8-65.2-120.8-159.2-145.8-297.3c-23-120.8-71-207.2-124.7-216.7c-36.4-7.7-222.5,122.8-222.5,157.3c0,13.4,11.5,34.5,24.9,48c17.3,21.1,13.4,19.2-19.2,0c-36.4-23-51.8-23-86.3-1.9c-24.9,15.4,30.7-46,122.8-134.3c163-157.3,166.9-161.1,180.3-270.5c13.4-124.7,0-276.2-44.1-493c-17.3-86.3-24.9-184.1-19.2-247.4c15.4-140,118.9-343.3,257-504.5c61.4-69,168.8-193.7,239.8-274.3c184.1-211,216.8-285.8,214.8-491.1c-1.9-186.1-23-245.5-205.2-552.4l-105.5-178.4l-69.1,136.2c-38.4,76.7-90.2,170.7-117,209.1c-34.5,49.9-48,95.9-48,161.1c0,101.7,13.4,120.8,159.2,222.5c99.7,67.1,120.8,101.7,97.8,153.5c-11.5,28.8-15.3,26.9-23-11.5c-7.7-46-168.8-165-197.6-145.8c-9.6,5.8-28.8,49.9-44.1,101.7c-40.3,136.2-130.4,303.1-249.4,458.4c-59.5,78.6-107.4,157.3-107.4,174.6c0,19.2,17.3,101.7,38.4,184.2c46,182.2,46,235.9,0,136.2c-32.6-72.9-34.5-72.9-57.5-32.6c-36.4,69.1-42.2,34.5-9.6-55.6c26.9-74.8,26.9-86.3-1.9-130.4l-30.7-46l-65.2,63.3c-111.3,107.4-149.6,211-147.7,399c0,153.4-23,145.8-30.7-7.7c-3.8-86.3-28.8-118.9-67.1-88.2c-51.8,42.2-34.5-7.7,19.2-57.5c26.9-24.9,63.3-71,78.6-103.6c17.3-30.7,111.3-170.7,209.1-306.9c97.8-138.1,211-320.3,251.3-402.8c65.2-136.2,72.9-170.7,72.9-297.3c0-132.4-1.9-143.9-38.4-138.1c-65.2,11.5-247.4,147.7-276.2,205.2c-15.4,30.7-30.7,115.1-36.4,188c-5.8,72.9-15.3,120.8-23,107.4c-19.2-28.8-101.7,99.7-157.3,243.6c-49.9,128.5-65.2,120.8-34.5-17.3c13.4-57.5,21.1-115.1,15.3-128.5c-3.8-13.4,11.5-44.1,34.5-67.1c42.2-42.2,101.7-247.4,78.6-272.4c-36.5-36.4-295.4,153.5-376,276.2c-115.1,172.6-170.7,636.8-109.3,913c44.1,195.7,128.5,358.7,216.8,422c40.3,28.8,63.3,51.8,51.8,51.8c-9.6,0-28.8-9.6-42.2-23c-38.4-38.4-44.1-5.7-23,120.9c23,141.9,23,316.5,1.9,372.1c-9.6,23-19.2-53.7-24.9-201.4c-5.8-197.6-13.4-253.2-48-318.4c-23-42.2-55.6-88.2-71-101.7c-24.9-21.1-32.6-17.3-49.9,19.2c-23,49.9-115.1,126.6-115.1,97.8c0-9.6,13.4-28.8,28.8-42.2c17.3-13.4,44.1-53.7,61.4-90.2c40.3-88.2,17.3-203.3-46-212.9c-134.3-19.2-370.2,239.8-370.2,406.7c0,51.8,21.1,92.1,95.9,180.3c86.3,103.6,92.1,115.1,48,103.6c-78.6-21.1-191.8-241.7-172.6-337.6c30.7-138.1,211-354.9,335.7-397.1c30.7-11.5,59.5-32.6,65.2-46c11.5-30.7-26.9-278.1-44.1-278.1c-32.6,0-487.2,468-510.2,525.6c-15.3,36.4-36.4,69.1-46,72.9c-28.8,9.6-117,153.4-117,189.9c0,19.2-9.6,40.3-21.1,46c-42.2,26.9-38.4-9.6,11.5-95.9c28.8-47.9,48-92.1,42.2-99.7c-17.3-15.3-128.5,9.6-193.7,42.2c-30.7,17.3-59.5,24.9-65.2,19.2c-13.4-11.5,149.6-86.3,193.7-86.3c55.6,0,143.9-53.7,157.3-95.9c30.7-97.8-120.8-151.5-301.2-105.5c-63.3,15.4-120.8,24.9-126.6,19.2c-5.8-5.8,0-9.6,13.4-9.6c17.3,0,21.1-15.3,15.4-40.3c-7.7-30.7-5.8-34.5,15.3-17.3c15.3,13.4,69.1,17.3,145.8,9.6c86.3-9.6,145.8-3.8,201.4,15.3l78.6,28.8l220.6-222.5c235.9-241.7,303.1-320.3,303.1-360.6c0-46-53.7-30.7-207.2,57.5c-193.7,109.3-237.9,122.8-512.2,143.9c-126.6,11.5-251.3,24.9-278.1,30.7c-40.3,9.6-42.2,9.6-15.3-9.6c19.2-11.5,101.7-34.5,182.2-49.9c82.5-15.3,151.5-36.4,155.4-46c3.8-11.5,23-11.5,46,1.9c23,11.5,76.7,17.3,122.8,11.5c94-9.6,257-97.8,257-138.1c0-15.3-38.4-49.9-86.3-78.7c-48-26.8-84.4-55.6-78.6-59.5c5.8-5.8,57.5,17.3,117,49.9l107.4,61.4l99.7-53.7c95.9-51.8,99.7-57.5,122.8-172.6c26.9-132.4,74.8-239.8,149.6-328c26.9-30.7,48-61.4,48-67.1c0-19.2-122.8-51.8-197.6-51.8c-130.4,0-216.8,38.4-391.3,174.6c-228.3,178.4-343.4,243.6-446.9,257c-159.2,21.1-166.9,24.9-199.5,105.5c-17.3,42.2-38.4,76.7-48,76.7c-11.5,0-5.8-23,9.6-51.8c40.3-78.6,34.5-120.8-15.4-120.8c-67.1,1.9-209.1,71-282,140c-34.5,34.5-61.4,47.9-55.6,32.6c3.8-15.3,53.7-61.4,109.3-99.7c76.7-53.7,130.4-74.8,237.9-92.1c308.8-48,381.7-63.3,422-97.8c28.8-24.9,34.5-34.5,13.4-36.4c-15.3,0,17.3-28.8,72.9-61.4c122.8-78.6,328-232.1,328-247.4c1.9-21.1-138.1-36.4-352.9-34.5c-214.8,0-326.1,23-391.3,82.5c-19.2,17.3-48,30.7-67.1,30.7c-55.6,0-222.5,94-314.6,178.4l-88.2,80.6l53.7-71c28.8-38.4,48-80.6,40.3-92.1c-5.8-9.6,1.9-19.2,19.2-19.2c55.6,0,358.7-151.5,345.3-172.6c-5.8-9.6-26.9-19.2-44.1-19.2c-55.6-1.9-475.7-149.6-429.7-151.5c23-1.9,97.8,21.1,163,49.9c118.9,49.9,122.8,51.8,751.9,65.2c473.8,11.5,659.9,21.1,736.6,44.1l103.6,28.8l222.5-141.9c366.4-235.9,370.2-212.9-28.8-228.3c-197.6-7.7-368.3-3.8-404.7,5.8c-49.9,13.4-59.5,13.4-49.9-9.6c7.7-23-24.9-24.9-197.6-17.3c-153.5,5.7-186.1,3.8-122.8-9.6c47.9-9.6,193.7-17.3,326.1-17.3c132.3-1.9,310.7-7.7,397.1-13.4l157.3-13.4l-67.1-86.3c-80.6-107.4-92.1-149.6-69.1-255.1l19.2-84.4l1.9,97.8c1.9,67.1,15.3,118.9,46,163c49.9,74.8,172.6,151.5,243.6,151.5c55.6,0,205.2-65.2,255.1-111.3c47.9-42.2,132.4-212.9,182.2-368.3c38.4-118.9,120.8-531.3,147.7-738.5c5.8-51.8,15.3-117,21.1-141.9c9.6-44.1,7.7-46-97.8-34.5c-111.3,11.5-201.4,53.7-201.4,95.9c0,13.4-34.5,84.4-78.6,157.3c-63.3,109.3-74.8,140-57.6,168.8c19.2,28.8,17.3,32.6-23,23c-42.2-11.5-46-3.8-88.2,180.3c-23,107.4-46,193.7-49.9,193.7c-3.8,0-3.8-63.3,0-140c5.7-117,21.1-170.7,94-335.7c49.9-109.3,90.2-216.8,94-239.8c3.8-38.4-3.8-42.2-71-38.4c-122.8,7.7-368.3,82.5-458.4,140c-130.4,82.5-193.7,176.5-193.7,287.7c0,51.8,11.5,107.4,26.9,124.7c17.3,21.1,19.2,36.4,7.7,44.1c-11.5,7.7-28.8,51.8-40.3,99.8c-19.2,80.6-21.1,82.5-23,23c0-34.5-9.6-59.5-19.2-53.7c-9.6,5.8-11.5-44.1-5.8-113.2c3.8-69.1,3.8-124.7-1.9-124.7c-7.7,0-57.5,63.3-115.1,140c-216.8,291.6-508.3,512.2-836.3,634.9c-97.8,36.4-201.4,86.3-228.3,111.3c-44.1,42.2-46,42.2-26.9,3.8c26.9-51.8,13.4-65.2-61.4-65.2c-49.9,0-159.2-23-347.2-76.7c-53.7-13.4-53.7-15.3-9.6-17.3c44.1-1.9,44.1-3.8-24.9-49.9c-115.1-78.6-82.5-74.8,72.9,11.5l143.9,78.6l199.5-7.7c189.9-5.8,205.2-9.6,358.7-86.3c186.1-95.9,429.7-270.5,429.7-310.7c0-49.9-197.6-115.1-354.9-118.9c-78.6-1.9-122.8-5.8-95.9-11.5c159.2-24.9,170.7-44.1,59.5-99.7c-141.9-72.9-571.6-101.7-679-48l-61.4,32.6l36.4-42.2c42.2-46,46-42.2-61.4-95.9C906,901.7,913.7,894,1034.6,940c53.7,19.2,172.6,42.2,260.9,48c143.9,9.6,163,7.7,151.5-19.2c-9.6-26.9-3.8-26.9,49.9-3.8c34.5,13.4,120.8,34.5,195.7,46c113.2,21.1,136.2,19.2,153.5-5.8c17.3-23,24.9-19.2,42.2,28.8c26.9,67.1,195.6,153.5,331.8,166.9l86.3,7.7l138.1-218.7c76.7-118.9,143.9-232.1,149.6-249.4c9.6-23-11.5-44.1-80.6-78.6c-49.9-24.9-134.3-69.1-186.1-97.8c-51.8-26.8-118.9-49.9-147.7-49.9c-28.8,0-59.5-7.7-65.2-19.2c-7.7-11.5,13.4-19.2,48-19.2c82.5,0,97.8-51.8,30.7-109.4c-28.8-23-74.8-44.1-103.6-44.1c-28.8-1.9-103.6-13.4-166.9-28.8c-159.2-38.4-232.1-36.4-278.1,9.6c-30.7,30.7-38.4,32.6-38.4,9.6c0-28.8-55.6-28.8-278.1,0c-30.7,3.8-46,1.9-32.6-3.8c11.5-3.8,23-21.1,23-36.4c0-21.1,7.7-23,36.4-9.6c26.9,15.4,76.7,9.6,186.1-19.2c151.5-40.3,280.1-42.2,506.4-5.8c59.5,9.6,78.6,5.8,88.2-19.2c23-59.5-38.4-155.4-212.9-337.6c-95.9-99.7-193.7-212.9-216.7-251.3c-78.6-130.4-178.4-143.9-295.4-42.2l-82.5,71l76.7-80.5c80.6-86.3,136.2-99.8,230.2-57.6c26.9,11.5,53.7,17.3,59.5,9.6c19.2-19.2-30.7-218.7-65.2-255.1c-19.2-19.2-40.3-53.7-48-72.9c-13.4-32.6-9.6-32.6,17.3-9.6c17.3,15.3,51.8,59.5,76.7,97.8c26.9,40.3,59.5,72.9,74.8,72.9c26.9,0,26.9,5.8,1.9,44.1c-23,32.6-24.9,59.4-9.6,126.6c21.1,95.9,59.5,176.5,101.7,211c24.9,21.1,32.6,19.2,42.2-5.8c9.6-26.8,17.3-23,46,21.1c49.9,80.6,212.9,237.9,237.9,230.2c11.5-3.8,24.9-23,26.9-44.1c17.3-92.1,32.6-51.8,26.9,65.2c-5.8,118.9-1.9,140,72.9,287.7c71,140,90.2,165,178.4,214.8c128.5,74.8,220.6,74.8,379.8,1.9c157.3-71,326.1-120.9,657.9-193.7c147.7-30.7,287.7-71,310.7-86.3c24.9-15.3,74.8-92.1,109.3-168.8c36.5-76.7,151.5-278.1,257-447c103.6-166.9,212.9-345.3,241.7-395.1c57.5-97.8,149.6-362.5,193.7-550.5c32.6-143.9,36.4-143.9-165,0c-360.6,260.9-393.2,305-356.8,512.1l23,134.3l-94,155.4c-51.8,84.4-97.8,151.5-101.7,147.7c-3.8-5.8,1.9-24.9,13.4-46c34.5-67.1,26.9-103.6-19.2-90.2c-28.8,9.6-36.4,7.7-28.8-7.7c7.7-11.5,32.6-21.1,57.5-21.1c103.6,0,134.3-132.4,86.3-370.2l-23-109.3l-78.6,61.4c-211,161.1-395.2,376-395.2,460.4c0,24.9,17.3,90.1,38.4,145.8c21.1,55.6,38.4,120.8,38.4,145.8c0,55.6-49.9,176.5-80.6,195.6c-15.3,9.6-17.3,3.8-5.8-23c51.8-122.7,74.8-199.5,61.4-211c-7.7-7.7-49.9,19.2-95.9,61.4c-59.5,55.6-65.2,59.5-23,11.5c63.3-71,71-153.5,19.2-251.3l-30.7-63.3l-65.2,74.8c-34.5,40.3-76.7,94-90.2,120.8c-13.4,26.8-49.9,69.1-78.6,94C3167.6-145.7,3064,2,3064,38.5c-1.9,13.4-28.8,55.6-59.5,92.1l-59.5,67.1l32.6-76.7c17.3-42.2,36.4-88.2,44.1-103.6c9.6-26.8-5.7-26.8-101.7,7.7c-21.1,7.7,1.9-13.4,49.9-44.1c47.9-30.7,120.8-99.8,165-149.6c128.5-157.3,280-374,266.6-385.5c-28.8-30.7-356.8,138.1-483.4,247.5c-36.4,30.7-65.2,47.9-65.2,36.4c0-11.5-34.5-21.1-78.6-21.1c-80.6,0-264.7-74.8-305-124.7c-17.3-21.1-17.3-28.8-1.9-28.8c11.5,0,21.1,7.7,21.1,17.3c0,32.6,189.9,97.8,282,97.8c132.4,0,341.4-132.4,274.3-172.6c-13.4-7.7,11.5-19.2,61.4-26.9c84.4-13.4,207.2-74.8,207.2-103.6c0-7.7,30.7-11.5,69.1-7.7c63.3,7.7,78.6-1.9,191.8-117c67.1-69.1,122.8-136.2,122.8-147.7c0-11.5-48-42.2-107.4-69.1l-107.4-48l-63.3,40.3c-34.5,21.1-74.8,51.8-88.2,69c-13.4,15.3-42.2,38.4-63.3,49.9c-23,11.5-1.9-19.2,44.1-67.1c147.7-153.4,76.7-178.4-259-88.2c-72.9,19.2-172.6,36.5-220.6,34.5c-78.7,0-74.8-3.8,65.2-38.4c82.5-19.2,166.9-44.1,186.1-55.6c40.3-21.1,51.8-57.5,17.3-57.5c-26.9,0-212.9-80.6-203.3-88.2c1.9-3.8,74.8,15.4,157.3,40.3c84.4,26.8,193.7,47.9,245.5,47.9c49.9,0,163,24.9,257,57.5c90.1,32.6,182.2,57.5,203.3,57.5c48,0,222.5-118.9,464.2-316.5c251.3-205.2,423.9-391.3,452.7-487.2c15.3-51.8,19.2-220.6,11.5-560.1c-9.6-506.4-21.1-623.4-176.5-1749.4c-36.4-266.6-71-519.8-76.7-565.9L4424-4780H5032h606.2l-11.5,44.1c-28.8,97.8-69,583.1-88.2,1043.5c-46,1131.7-57.5,1258.3-145.8,1718.7c-55.6,297.3-61.4,395.1-24.9,418.2c42.2,26.9,51.8,21.1,82.5-34.5c21.1-38.4,28.8-44.1,30.7-19.2c0,17.3,13.4,32.6,30.7,32.6c46,0,11.5,38.4-61.4,69c-36.4,15.3-65.2,36.5-65.2,46s24.9,46,53.7,78.6c69,78.7,132.4,67.1,199.5-34.5c61.4-94,143.9-174.6,211-209.1c65.2-34.5,230.2-67.1,214.8-44.1c-5.8,9.6-21.1,17.3-32.6,17.3c-80.6,0-172.6,49.9-251.3,130.4c-130.4,138.1-203.3,235.9-191.8,257.1c11.5,19.2,165,11.5,370.2-15.4c57.5-7.7,80.6-5.8,71,7.7c-7.7,11.5-23,17.3-36.4,13.4c-13.4-5.7-65.2,1.9-118.9,15.3l-95.9,26.9l76.7,38.4c42.2,23,94,59.5,115.1,82.5l38.4,44.1l-53.7-34.5c-28.8-19.2-69.1-28.8-94-23c-24.9,7.7-49.9,0-63.3-17.3c-26.9-36.4-166.9-69.1-189.9-46c-11.5,11.5-3.8,34.5,21.1,61.4c42.2,46,71,97.8,101.7,176.5c26.8,72.9,9.6,61.4-44.1-32.6c-26.9-46-86.3-117-132.4-159.2c-67.1-59.5-82.5-67.1-88.2-40.3c-3.8,23-23,1.9-53.7-59.5c-51.8-103.6-115.1-172.6-138.1-149.6c-7.7,7.7-13.4,153.4-13.4,324.2c0,293.5,1.9,316.5,47.9,406.7l47.9,95.9l165,5.8c287.7,9.6,550.5-69.1,721.3-216.8c94-80.6,245.5-368.3,274.3-525.6c21.1-117,38.4-147.7,38.4-72.9c0,61.4,19.2,65.2,69,11.5c51.8-57.5,117-86.3,224.4-101.7c111.3-17.2,435.4,5.8,435.4,28.8c0,9.6-94,17.3-211,17.3c-141.9,0-211,7.7-211,21.1c0,21.1,151.6,170.7,172.6,170.7c5.8,0,65.2,53.7,134.3,117c149.6,142,101.7,122.8-94-38.4c-78.6-63.3-149.6-111.3-155.4-107.4c-7.7,5.8-19.2,34.5-24.9,67.1c-7.7,30.7-21.1,57.5-32.6,57.5c-11.5,0-11.5-17.3,1.9-51.8c38.4-101.7-28.8-197.6-118.9-168.8c-55.6,19.2-142,163-199.5,335.7c-26.9,82.5-78.6,197.6-115.1,257c-34.5,59.5-57.5,111.3-48,117c19.2,11.5,155.4-34.5,216.7-76.7c36.5-23,49.9-24.9,55.6-5.7c7.7,19.2,26.8,17.3,88.2-7.7c63.3-24.9,80.6-26.9,80.6-5.8c0,13.4,19.2,30.7,44.1,38.4c32.6,11.5,15.3,17.3-72.9,26.8c-111.3,11.5-203.3,46-201.4,74.8c1.9,23,255.1,176.5,293.5,176.5c19.2,0,53.7-9.6,76.7-21.1c30.7-17.3,42.2-17.3,48,0c3.8,11.5,36.4,21.1,72.9,21.1c40.3,0,63.3,7.7,55.6,19.2c-5.8,11.5-61.4,19.2-122.8,19.2c-132.3,0-164.9,23-128.5,94c15.3,26.9,46,67.1,69,88.3c23,21.1,49.9,53.7,61.4,74.8c19.2,34.5,17.3,34.5-24.9,3.8c-25-17.3-59.5-30.7-76.7-30.7c-19.2,0-38.4-21.1-44.1-49.9c-15.3-61.4-172.6-230.2-251.3-270.4c-40.3-21.1-111.3-30.7-239.8-30.7c-163,0-197.6,5.8-326.1,61.4c-78.7,34.5-230.2,84.4-335.7,109.3c-105.5,26.9-197.6,55.6-205.3,61.4c-7.7,7.7,95.9,149.6,228.3,318.4l241.7,303.1l94-7.7c153.5-15.4,165-38.4,115.1-241.7c-46-186.1-51.8-234-24.9-234c11.5,0,24.9,40.3,30.7,90.2c17.3,120.8,46,212.9,71,228.3c26.8,17.3,92.1-61.4,92.1-109.4c0-49.9,84.4-212.9,126.6-249.4c30.7-23,32.6-23,17.3,1.9c-7.7,15.3-24.9,42.2-38.4,57.5c-13.4,15.4-34.5,72.9-47.9,124.7c-13.4,53.7-49.9,141.9-78.6,199.5c-30.7,57.5-53.7,105.5-49.9,107.4c1.9,3.8,99.7,23,214.8,46c157.3,30.7,255.1,61.4,383.6,126.6c95.9,47.9,197.6,86.3,224.4,86.3c72.9,0,331.8-182.2,429.7-301.2c94-115.1,132.4-234,149.6-464.2c7.7-97.8,28.8-197.6,51.8-249.4c25-59.4,34.5-111.3,28.8-155.4c-9.6-53.7-7.7-59.5,7.7-23c23,53.7,32.6,53.7,140-15.4c49.9-30.7,95.9-57.5,103.6-57.5c5.7,0-21.1,26.8-61.4,57.5c-40.3,32.6-80.6,57.5-88.2,57.5c-9.6,0-42.2,34.5-72.9,78.6c-55.6,74.8-101.7,270.5-71,299.2c5.8,7.7,34.5-7.7,63.3-34.5l51.8-46l-49.9,61.4c-30.7,38.4-61.4,115.1-82.5,211c-19.2,82.5-49.9,180.3-69.1,218.7l-34.5,71l176.5-63.3c147.7-51.8,193.8-78.6,276.2-159.2c55.6-55.6,117-132.4,138.1-170.7c21.1-40.3,38.4-59.5,40.3-44.1c0,26.8-57.5,117-168.8,266.6l-44.1,57.5l72.9,17.3c40.3,11.5,111.3,28.8,159.2,38.4c86.3,21.1,86.3,21.1,9.6,11.5c-291.6-32.6-364.5-30.7-473.8,9.6c-59.5,23-132.3,59.5-159.2,82.5c-49.9,38.4-51.8,42.2-17.3,67.1c30.7,23,28.8,24.9-30.7,24.9c-71,0-268.6,107.4-383.6,209.1l-67.1,59.5l132.4,124.7c149.6,141.9,247.4,182.2,445,182.2c232.1,0,420.1-61.4,560.1-182.2c71-61.4,95.9-71,191.8-76.7l109.3-5.8l-90.1,24.9C8379.3,801.9,8218.1,894,8233.5,917c13.4,21.1,301.2-57.5,412.4-115.1c47.9-23,124.7-69.1,172.6-99.7l86.3-55.6l-76.7,69.1c-42.2,36.4-132.4,95.9-201.4,128.5c-122.8,61.4-122.8,61.4-67.1,74.8c120.8,26.9,184.1,19.2,245.5-32.6c55.6-48,266.6-161.1,295.4-161.1c7.7,0-34.5,28.8-95.9,65.2c-111.3,63.3-205.2,140-205.2,166.9c0,23,63.3,51.8,176.5,82.5c69,19.2,86.3,28.8,49.9,28.8c-28.8,1.9-118.9-19.2-201.4-46c-80.6-24.9-151.5-42.2-157.3-36.4c-3.8,3.8,21.1,40.3,57.5,80.6c36.5,40.3,23,30.7-34.5-23l-99.8-94L8440.6,963c-82.5,5.8-239.8,34.5-351,59.5c-111.3,26.9-270.5,53.7-354.9,59.5c-220.6,17.3-226.3,26.8-82.5,128.5c216.7,155.4,320.3,166.9,527.5,61.4c71-36.4,109.3-51.8,82.5-34.5c-26.9,19.2-76.7,61.4-113.2,94l-63.3,57.5l51.8,34.5c28.8,19.2,82.5,46,120.8,59.5c40.3,15.3,57.5,26.9,40.3,26.9c-19.2,1.9-92.1-23-163-53.7c-72.9-30.7-180.3-65.2-237.9-74.8c-57.5-11.5-145.8-38.4-195.6-59.5c-51.8-21.1-92.1-34.5-92.1-28.8c0,5.8,19.2,38.4,42.2,71c23,32.6,30.7,51.8,19.2,44.1c-13.4-7.7-59.5-63.3-103.6-122.8c-99.7-134.3-278.1-310.8-318.4-310.8c-59.5,0,19.2,429.7,94,514.1c24.9,26.9,30.7,40.3,13.4,24.9c-40.3-30.7-67.1-15.4-97.8,57.5c-21.1,53.7-23,44.1-23-95.9c0-188-19.2-214.8-115.1-168.8c-94,44.1-103.6,40.3-26.9-11.5c36.5-23,65.2-55.6,65.2-71s-7.7-105.5-17.3-201.4c-15.3-170.7-15.3-172.6-105.5-264.7C6908,621.6,6674,514.2,6507.1,514.2h-55.6l103.6,109.3c57.5,59.5,76.7,84.4,40.3,55.6c-65.2-53.7-103.6-53.7-59.5-1.9c21.1,24.9,19.2,26.8-7.7,17.3c-17.3-5.8-30.7-17.3-30.7-24.9c0-5.8-32.6-48-74.8-94c-67.1-72.9-82.5-80.6-161.1-80.6c-48,0-99.8,5.8-117,11.5c-36.4,13.4-40.3,95.9-9.6,174.6c11.5,28.8,28.8,209.1,36.5,400.9c21.1,516,23,517.9,512.1,761.5l253.2,128.5l207.2-97.8c297.3-140,326.1-147.7,610-172.6c232.1-19.2,260.9-17.3,301.2,11.5c40.3,30.7,42.2,30.7,3.8,21.1c-40.3-11.5-447,17.3-548.6,38.4c-30.7,5.8-53.7,17.3-53.7,23c0,17.3,272.4,113.2,364.5,128.5c49.9,9.6,69,23,69,48c0,23-7.7,30.7-21.1,21.1c-9.6-9.6-118.9-48-239.8-88.2c-199.5-63.3-228.3-69.1-297.3-47.9c-74.8,21.1-316.5,147.7-316.5,163c0,5.8,53.7,74.8,120.8,157.3c65.2,82.5,134.3,170.7,151.6,195.7c30.7,44.1,36.4,46,113.2,23c44.1-13.4,193.7-28.8,331.9-34.5c310.7-13.4,364.5-34.5,556.3-214.8c159.2-151.5,220.6-184.1,88.2-47.9l-86.3,86.3l143.9-11.5c86.3-7.7,166.9-28.8,201.4-49.9c138.1-84.4,170.7-95.9,293.5-103.6l128.5-9.6l-149.6,26.9c-155.4,28.8-251.3,74.8-239.8,113.2c3.8,13.4,55.6,46,113.2,74.8c124.7,61.4,103.6,69-51.8,13.4c-63.3-23-166.9-40.3-237.9-42.2c-105.5-3.8-140,5.8-224.4,51.8c-53.7,30.7-120.8,78.7-149.6,107.4l-49.9,51.8l120.8,111.3c180.3,163,235.9,186.1,514.1,212.9c189.9,17.3,212.9,23,115.1,23c-117,1.9-306.9-19.2-425.8-46c-51.8-11.5-53.7-9.6-53.7,61.4c0,55.6-5.8,67.1-19.2,46c-9.6-15.3-19.2-53.7-19.2-82.5c0-42.2-32.6-88.2-128.5-189.9l-130.4-134.3l-268.5,7.7c-293.5,7.7-387.5,32.6-377.9,101.7c5.8,46,222.5,475.7,278.1,554.4c51.8,74.8,255.1,166.9,393.2,178.4c124.7,11.5,278.1-24.9,431.6-103.6c51.8-24.9,97.8-42.2,101.7-38.4c5.8,3.8-17.2,19.2-47.9,32.6c-84.4,34.5-115.1,74.8-74.8,97.8c17.3,9.6,51.8,46,74.8,80.5c40.3,59.5,38.4,57.5-36.4-13.4l-80.6-76.7l-128.5,26.8c-189.9,36.4-188,34.5-126.6,101.7l53.7,57.5l-57.5-40.3c-63.3-46-376-176.5-422-176.5c-15.3,0-28.8,9.6-28.8,23c0,26.8,128.5,259,153.5,274.3c11.5,5.8,19.2,26.8,19.2,46c0,34.5,140,247.4,272.4,414.3l76.7,95.9l-90.2-95.9c-124.7-134.3-326.1-437.3-470-715.5l-124.7-235.9l-13.4,159.2c-7.7,86.3-23,197.6-34.5,247.4c-23,90.2-21.1,92.1,42.2,151.5c34.5,30.7,86.3,63.3,115.1,69.1c28.8,7.7,63.3,24.9,74.8,40.3c19.2,21.1,15.4,23-28.8,5.8c-28.8-9.6-55.6-19.2-61.4-19.2c-3.8,0-9.6,40.3-9.6,92.1c-1.9,49.9-9.6,117-17.3,147.7c-11.5,42.2-15.3,19.2-17.3-88.2c-1.9-136.2-5.8-149.6-67.1-220.6l-65.2-74.8l-51.8,48c-72.9,67.1-126.6,145.8-155.4,228.3c-21.1,59.5-25,61.4-26.9,21.1c0-51.8,36.4-120.8,140-255.1c61.4-80.6,107.4-195.7,86.3-216.8c-11.5-9.6-249.4,166.9-335.7,247.4c-34.5,32.6-63.3,49.9-63.3,38.4c0-21.1,324.2-287.7,399-329.9c26.9-15.4,32.6-48,28.8-203.3c-1.9-161.1-9.6-199.5-63.3-310.7c-168.8-364.5-431.6-661.8-696.3-792.2c-90.2-46-176.5-76.7-191.8-71c-15.3,5.8-38.4,55.6-51.8,111.3c-23,95.9-23,101.7,17.3,134.3l42.2,34.5l-53.7,5.8c-44.1,3.8-55.6,15.3-59.5,67.1c-11.5,115.1,141.9,318.4,299.2,399c36.5,17.3,61.4,36.4,55.6,40.3c-5.7,5.8-44.1-7.7-88.2-28.8c-42.2-23-82.5-40.3-88.2-40.3c-21.1,0-7.7,80.6,21.1,126.6c17.3,24.9,26.9,51.8,21.1,57.5c-13.4,15.3-63.3-82.5-78.7-155.4c-7.7-30.7-42.2-94-78.6-140c-34.5-46-67.1-92.1-71-103.6c-17.2-48-72.9,7.7-99.7,94c-17.2,55.6-28.8,74.8-28.8,48c-1.9-23,11.5-72.9,26.9-111.3c15.3-36.4,36.5-120.8,48-186.1c11.5-65.2,34.5-172.6,49.9-235.9c19.2-72.9,25-130.4,15.4-147.7c-9.6-15.4-72.9-67.1-142-113.2c-69.1-46-147.7-118.9-178.4-165c-30.7-46-59.5-78.6-63.3-74.8c-3.8,3.8-32.6,88.2-63.3,188c-30.7,99.7-78.6,243.6-107.4,322.2c-65.2,182.2-55.6,253.2,61.4,454.6c47.9,82.5,111.2,214.8,138.1,295.4c48,140,51.8,143.9,155.4,193.7c57.5,28.8,145.8,86.3,193.7,130.4c88.3,76.7,90.2,78.7,134.3,42.2c78.7-61.4,203.3-115.1,289.7-126.6l82.5-11.5l-65.2,30.7c-34.5,15.3-86.3,28.8-111.3,28.8c-34.5,0-46,7.7-36.4,28.8c7.7,21.1-1.9,28.8-34.5,28.8c-65.2,0-126.6,76.7-126.6,155.4c0,97.8,72.9,493,107.4,587c19.2,53.7,71,118.9,147.7,189.9c115.1,105.5,115.1,107.4,28.8,47.9c-132.3-88.2-245.5-253.2-245.5-356.8c0-26.9-7.7-48-19.2-48c-38.4,0-178.4,237.9-222.5,374l-24.9,76.7V4105c-1.9-40.3,36.4-134.3,105.5-268.5c101.7-193.7,107.4-211,97.8-310.8c-13.4-151.5-80.6-295.4-178.4-379.8c-78.7-69.1-211-128.5-226.4-103.6c-3.8,7.7-21.1,86.3-38.4,176.5c-17.2,90.2-53.7,241.7-82.5,335.7c-44.1,143.9-53.7,207.2-51.8,374.1c0,111.3-5.8,180.3-13.4,153.5c-7.7-26.9-13.4-111.3-15.4-186.1c-1.9-76.7-9.6-140-19.2-140c-26.8,0-184.2,193.7-228.3,280c-40.3,80.6-118.9,466.1-118.9,587c0,36.4,17.2,97.8,36.4,136.2c21.1,42.2,26.9,63.3,11.5,51.8c-13.4-11.5-34.5-46-47.9-76.7c-23-57.5-57.5-78.7-57.5-34.5c0,11.5-3.8,17.3-9.6,13.4c-3.8-5.8,7.7-61.4,26.8-124.7c34.5-105.5,92.1-475.7,82.5-514.1c-3.8-7.7,46-76.7,107.4-153.5c280-341.4,312.7-422,326.1-799.9c7.7-268.5,5.8-285.8-38.4-383.6c-26.9-57.5-84.4-159.2-126.6-226.3c-44.1-67.1-80.6-138.1-80.6-157.3c0-19.2-7.7-38.4-19.2-46c-36.4-23-80.6,115.1-117,379.8c-23,149.6-65.2,349.1-95.9,443.1c-30.7,94-55.6,178.4-55.6,189.9c0,11.5,46,63.3,101.7,115.1c76.7,74.8,84.4,86.3,32.6,51.8c-36.4-24.9-90.1-65.2-118.9-92.1l-49.9-46l-23,42.2c-13.4,24.9-28.8,94-32.6,155.4c-5.8,63.3-19.2,113.2-26.9,113.2c-9.6,0-17.3-17.3-17.3-38.4c0-40.3-36.5-53.7-40.3-13.4c0,11.5-17.3,57.5-38.4,99.8c-19.2,42.2-30.7,55.6-24.9,28.8c7.7-26.9,40.3-109.3,76.7-186.1c34.5-76.7,95.9-218.7,134.3-316.5c38.4-97.8,74.8-191.8,80.6-207.2c5.7-15.3-38.4,17.3-99.7,72.9c-61.4,55.6-147.7,118.9-188,140c-111.3,57.5-71,11.5,49.9-57.5c184.2-103.6,251.3-232.1,280.1-542.9c13.4-134.3,36.4-237.9,84.4-364.5c36.5-97.8,65.2-180.3,61.4-182.2c-1.9-3.8-67.1,48-143.9,111.3c-74.8,65.2-141.9,115.1-145.8,109.3c-9.6-9.6,46-67.1,212.9-214.8c53.7-48,118.9-128.5,147.7-178.4c109.3-203.3,178.4-623.4,163.1-997.5c-11.5-293.5-48-364.5-341.4-696.3c-345.3-389.4-483.4-604.2-585-911.1c-44.1-134.3-51.8-195.7-61.4-489.1c-9.6-322.2-28.8-479.5-59.5-479.5c-9.6,0-30.7,80.6-49.9,178.4c-49.9,264.7-151.5,552.4-291.6,813.3C4447-360.5,4447-335.6,4590.9-107.3c61.4,94,153.5,243.6,207.2,333.8c115.1,195.7,234,316.5,377.9,389.4c103.6,51.8,107.4,51.8,188,23c97.8-34.5,97.8-34.5,97.8-11.5c0,9.6-26.9,21.1-59.5,28.8c-80.6,15.4-65.2,44.1,74.8,136.2c88.2,57.5,117,88.2,118.9,124.7c0,26.9,13.4,69.1,28.8,95.9c15.3,26.9,26.8,61.4,26.8,76.7c1.9,15.3-15.3-5.8-34.5-48c-42.2-94-159.2-203.3-287.7-268.5c-120.8-59.5-124.7-59.5-90.2,5.8c15.4,28.8,46,113.2,69.1,189.9c38.4,126.6,84.4,212.9,193.7,360.6c36.4,49.9,32.6,47.9-32.6-15.3c-42.2-38.4-101.7-113.2-132.3-166.9c-32.6-51.8-65.2-92.1-76.7-90.2c-9.6,3.8-24.9,44.1-32.6,92.1c-5.8,46-7.7,9.6-1.9-80.6c5.8-128.5,1.9-180.3-21.1-226.3c-36.4-67.1-101.7-111.3-130.4-82.5c-34.5,34.5-74.8,239.8-90.2,462.3c-9.6,128.5-26.9,241.7-42.2,264.7c-21.1,36.4-21.1,51.8,7.7,109.3c36.5,80.6,107.4,118.9,237.9,138.1c105.5,13.4,157.3,36.4,134.3,57.5c-7.7,7.7-25,3.8-36.4-7.7c-34.5-34.5-222.5-30.7-230.2,5.8c-3.8,17.3-40.3-19.2-90.2-95.9c-46-69.1-90.2-124.7-97.8-124.7c-5.8,0-48,38.4-94,84.4l-84.4,86.3l49.9,82.5c65.2,111.3,211,245.5,268.5,245.5c24.9,0,61.4,13.4,82.5,30.7c34.5,26.9,34.5,28.8,1.9,19.2c-95.9-30.7-130.4-32.6-157.3-11.5c-15.3,13.4-28.8,15.3-28.8,5.8c0-23-209.1-301.1-232.1-308.8c-7.7-3.8-21.1,15.3-28.8,44.1c-23,92.1,5.8,234,74.8,383.6c74.8,155.4,95.9,239.8,32.6,124.7c-67.1-122.8-153.5-362.5-153.5-425.8c1.9-94,57.5-199.5,199.5-368.3c113.2-136.2,126.6-161.1,126.6-235.9c0-46-7.7-82.5-17.3-82.5c-38.4,0-262.8,272.4-322.3,387.5c-65.2,128.5-88.2,117-24.9-13.4c21.1-42.2,36.4-88.2,38.4-101.7c0-15.4,55.6-80.6,122.8-145.8c138.1-136.2,176.5-218.7,247.4-539l46-199.5l-118.9-94l-118.9-95.9L4669.5,658l-107.4,216.8l42.2,38.4c23,21.1,72.9,51.8,109.3,67.1c38.4,17.3,53.7,30.7,34.5,30.7c-21.1,1.9-34.5,17.3-34.5,40.3c0,34.5-9.6,28.8-59.5-28.8c-32.6-36.4-67.1-67.1-76.7-67.1c-24.9,0-59.5,155.4-48,214.8c7.7,36.4,3.8,51.8-9.6,42.2c-11.5-5.8-42.2,9.6-69.1,32.6l-48,46l40.3-80.6c21.1-44.1,40.3-90.1,40.3-101.7c0-30.7-57.5-23-126.6,21.1c-36.4,21.1-65.2,30.7-65.2,21.1c0-11.5,44.1-46,95.9-80.6c65.2-42.2,99.7-78.7,105.5-113.2c5.8-26.9,46-153.5,86.3-280c42.2-126.6,76.7-259,76.7-293.5c0-97.8-61.4-191.8-235.9-364.5L4259-141.8l-76.7,115.1c-44.1,65.2-101.7,193.7-136.2,301.2c-90.2,274.3-180.3,738.5-184.1,930.3c-1.9,151.5,3.8,172.6,65.2,297.3c38.4,74.8,140,249.4,226.3,387.5c234,376,241.7,400.9,272.4,874.7c24.9,381.7,48,446.9,239.8,673.3c143.9,168.8,222.5,295.4,247.4,404.7c7.7,32.6,44.1,124.7,80.6,205.2c48,107.4,69.1,184.1,74.8,278.1c5.7,90.2,3.8,115.1-7.7,82.5c-9.6-26.9-17.2-82.5-19.2-124.7c-1.9-42.2-24.9-124.7-53.7-182.2l-49.9-105.5l-13.4,57.5c-7.7,32.6-15.3,172.6-17.3,310.8l-1.9,255.1l97.8,109.3c53.7,61.4,118.9,130.4,145.8,155.4c24.9,23,36.4,42.2,24.9,42.2c-11.5,0-69.1-46-126.6-103.6c-57.5-57.5-103.6-97.8-103.6-90.2c0,9.6,21.1,65.2,48,124.7c48,111.3,51.8,147.7,3.8,55.6l-28.8-51.8l-40.3,80.6C4872.8,5048.7,4855.6,5044.9,4909.3,4937.5z"/><path d="M5690,4895.3l-46-49.9l53.7,24.9c28.8,13.4,51.8,34.5,51.8,49.9C5749.4,4954.8,5743.7,4952.8,5690,4895.3z"/><path d="M6612.6,4619.1c-36.4-32.6-94-63.3-130.4-69.1c-74.8-13.4-111.3-78.6-128.5-222.5l-9.6-82.5l24.9,86.3c32.6,118.9,47.9,140,149.6,197.6c47.9,28.8,107.4,72.9,132.4,99.7C6710.4,4692,6695.1,4688.1,6612.6,4619.1z"/><path d="M5947,4204.7c11.5-38.4,24.9-59.5,28.8-47.9c11.5,32.6-13.4,117-32.6,117C5933.6,4273.8,5935.5,4243.1,5947,4204.7z"/><path d="M6900.3,3142.1c-36.4-30.7-57.5-55.6-46-57.5c9.6,0,44.1,26.8,74.8,57.5C7000.1,3215,6984.8,3216.9,6900.3,3142.1z"/><path d="M8507.8,1785.9c13.4-5.7,30.7-3.8,36.5,1.9c7.7,5.8-3.8,11.5-24.9,9.6C8498.2,1797.4,8492.4,1791.7,8507.8,1785.9z"/><path d="M8329.4,1751.4c-42.2-15.3-118.9-38.4-172.6-55.6l-95.9-28.8l95.9,11.5c99.8,11.5,354.9,99.7,287.7,99.7C8423.4,1776.3,8371.6,1764.8,8329.4,1751.4z"/></g></g>
</svg>